<svg width="90" height="90" viewBox="0 0 90 90" fill="none" xmlns="http://www.w3.org/2000/svg">
<path d="M11.1454 89.7721L9.45268 81.7832H9.37661L7.68387 89.7721H3.06214L0 76.6543H4.37449L5.87702 84.0903H5.95309L7.43662 76.6543H11.5829L13.1615 84.0903H13.2376L14.645 76.6543H18.8293L15.7672 89.7721H11.1454Z" fill="white"/>
<path d="M25.3721 76.4233C26.4118 76.4233 27.312 76.5822 28.0728 76.9C28.8463 77.2178 29.4296 77.65 29.8226 78.1965C30.2284 78.7304 30.4312 79.3278 30.4312 79.9888C30.4312 80.6498 30.2537 81.2472 29.8987 81.7811C29.5437 82.3022 29.0872 82.6708 28.5293 82.8869V82.9632C29.252 83.192 29.8099 83.5924 30.203 84.1644C30.6088 84.7237 30.8116 85.4037 30.8116 86.2045C30.7609 87.3231 30.2727 88.2383 29.3471 88.9501C28.4342 89.6492 27.0838 89.9988 25.296 89.9988C24.066 89.9988 23.0327 89.8335 22.1958 89.503C21.3589 89.1725 20.7376 88.7213 20.3319 88.1493C19.9261 87.5773 19.7233 86.9354 19.7233 86.2236V85.8232H23.0707C23.0707 86.8655 23.73 87.3866 25.0487 87.3866C26.3674 87.3866 27.0268 86.8019 27.0268 85.6325C27.0268 85.1876 26.8999 84.8508 26.6464 84.622C26.4054 84.3805 26.0885 84.2597 25.6954 84.2597H24.307V81.9145H25.3911C25.7841 81.9145 26.1011 81.8001 26.3421 81.5713C26.5956 81.3298 26.7224 80.9866 26.7224 80.5417C26.7224 80.1223 26.5703 79.7663 26.266 79.474C25.9743 79.1816 25.5686 79.0355 25.0487 79.0355C24.5035 79.0355 24.0787 79.1753 23.7744 79.4549C23.4701 79.7346 23.3179 80.0778 23.3179 80.4845H20.1417V80.0079C20.1417 79.3469 20.3446 78.7431 20.7503 78.1965C21.1688 77.65 21.771 77.2178 22.5572 76.9C23.356 76.5822 24.2943 76.4233 25.3721 76.4233Z" fill="white"/>
<path d="M44.2581 89.7721V85.0436C44.2581 84.4589 44.2772 83.8615 44.3152 83.2513C44.3659 82.6285 44.4166 82.1073 44.4673 81.6879C44.5181 81.2684 44.5498 81.0015 44.5624 80.8871H44.4864L42.0709 89.7721H38.7805L36.346 80.9061H36.27C36.2826 81.0205 36.3143 81.2875 36.365 81.7069C36.4284 82.1137 36.4855 82.6285 36.5362 83.2513C36.5869 83.8615 36.6123 84.4589 36.6123 85.0436V89.7721H32.7513V76.6543H38.6854L40.6634 84.2237H40.7395L42.6985 76.6543H48.4234V89.7721H44.2581Z" fill="white"/>
<path d="M50.9785 76.6543H62.2951V79.8003H55.1818V81.6116H61.2681V84.6241H55.1818V86.6261H62.4283V89.7721H50.9785V76.6543Z" fill="white"/>
<path d="M73.4724 89.7721L72.9208 87.9226H68.3371L67.7856 89.7721H63.4872L68.2611 76.6543H73.1491L77.923 89.7721H73.4724ZM69.212 84.9864H72.0459L70.6765 80.3151H70.6005L69.212 84.9864Z" fill="white"/>
<path d="M85.7207 80.01V89.7721H81.5174V80.01H77.219V76.6543H90.0001V80.01H85.7207Z" fill="white"/>
<path d="M5.24547 68.9273H7.35505V69.6574H4.39355V61.9648H7.26866V62.6949H5.24547V65.2912H6.89778V66.0205H5.24547V68.9273Z" fill="white"/>
<path d="M10.2902 68.5436V66.4415C10.2902 66.2771 10.2656 66.1722 10.2157 66.1269C10.1666 66.0808 10.0635 66.0578 9.90743 66.0578H9.06819C8.41835 66.0578 8.09424 65.7329 8.09424 65.0814V62.9412C8.09424 62.2914 8.41835 61.9648 9.06819 61.9648H10.1547C10.8037 61.9648 11.1286 62.2914 11.1286 62.9412V64.1289H10.2775V63.0779C10.2775 62.9126 10.2553 62.8077 10.2094 62.7625C10.1642 62.7172 10.0596 62.6949 9.89474 62.6949H9.32734C9.1625 62.6949 9.05788 62.7172 9.0135 62.7625C8.96833 62.8077 8.94457 62.9126 8.94457 63.0779V64.9456C8.94457 65.1013 8.96833 65.2054 9.0135 65.2538C9.05788 65.3039 9.1625 65.3293 9.32734 65.3293H10.1666C10.8164 65.3293 11.1405 65.6542 11.1405 66.3057V68.6803C11.1405 69.3317 10.8164 69.6574 10.1666 69.6574H9.09276C8.44292 69.6574 8.1188 69.3317 8.1188 68.6803V67.4934H8.96992V68.5436C8.96992 68.7089 8.99211 68.8137 9.03808 68.8598C9.08246 68.9051 9.18786 68.9273 9.35269 68.9273H9.90743C10.0635 68.9273 10.1666 68.9051 10.2157 68.8598C10.2656 68.8137 10.2902 68.7089 10.2902 68.5436Z" fill="white"/>
<path d="M15.0031 61.9648V62.6949H13.7684V69.6574H12.9308V62.6949H11.6969V61.9648H15.0031Z" fill="white"/>
<path d="M18.297 68.5436V63.0779C18.297 62.9126 18.2724 62.8077 18.2232 62.7625C18.1741 62.7172 18.0711 62.6949 17.9142 62.6949H16.5947V68.9273H17.9142C18.0711 68.9273 18.1741 68.9051 18.2232 68.8598C18.2724 68.8137 18.297 68.7089 18.297 68.5436ZM15.7428 61.9648H18.1741C18.8232 61.9648 19.1489 62.2914 19.1489 62.9412V68.6803C19.1489 69.3317 18.8232 69.6574 18.1741 69.6574H15.7428V61.9648Z" fill="white"/>
<path d="M71.6948 61.9648V69.6574H70.8555V62.6949H70.0171V61.9648H71.6948Z" fill="white"/>
<path d="M74.1007 65.7241H75.1856V63.0779C75.1856 62.9126 75.161 62.8077 75.1119 62.7625C75.0619 62.7172 74.9597 62.6949 74.8028 62.6949H74.1007C73.9358 62.6949 73.8312 62.7172 73.7852 62.7625C73.7401 62.8077 73.7179 62.9126 73.7179 63.0779V65.3404C73.7179 65.4985 73.7401 65.601 73.7852 65.6511C73.8312 65.6995 73.9358 65.7241 74.1007 65.7241ZM73.8407 61.9648H75.0619C75.7118 61.9648 76.0375 62.2914 76.0375 62.9412V68.6803C76.0375 69.3317 75.7118 69.6574 75.0619 69.6574H73.8534C73.2036 69.6574 72.8787 69.3317 72.8787 68.6803V67.2336H73.7179V68.5436C73.7179 68.7089 73.7401 68.8137 73.7852 68.8598C73.8312 68.9051 73.9358 68.9273 74.1007 68.9273H74.8028C74.9597 68.9273 75.0619 68.9051 75.1119 68.8598C75.161 68.8137 75.1856 68.7089 75.1856 68.5436V66.4542H73.8407C73.1909 66.4542 72.866 66.1285 72.866 65.4771V62.9412C72.866 62.2914 73.1909 61.9648 73.8407 61.9648Z" fill="white"/>
<path d="M79.6393 68.5436V66.5408C79.6393 66.3756 79.614 66.2707 79.5656 66.2254C79.5157 66.1809 79.4135 66.1571 79.2574 66.1571H78.4918C78.3357 66.1571 78.2335 66.1809 78.1836 66.2254C78.1336 66.2707 78.1099 66.3756 78.1099 66.5408V68.5436C78.1099 68.7089 78.1336 68.8137 78.1836 68.8598C78.2335 68.9051 78.3357 68.9273 78.4918 68.9273H79.2574C79.4135 68.9273 79.5157 68.9051 79.5656 68.8598C79.614 68.8137 79.6393 68.7089 79.6393 68.5436ZM79.6393 65.0314V63.0779C79.6393 62.9126 79.614 62.8077 79.5656 62.7625C79.5157 62.7172 79.4135 62.6949 79.2574 62.6949H78.4918C78.3357 62.6949 78.2335 62.7172 78.1836 62.7625C78.1336 62.8077 78.1099 62.9126 78.1099 63.0779V65.0314C78.1099 65.1966 78.1336 65.3015 78.1836 65.3468C78.2335 65.3929 78.3357 65.4151 78.4918 65.4151H79.2574C79.4135 65.4151 79.5157 65.3929 79.5656 65.3468C79.614 65.3015 79.6393 65.1966 79.6393 65.0314ZM80.4786 62.9412V65.2054C80.4786 65.5756 80.3264 65.7742 80.0221 65.798C80.3264 65.8481 80.4786 66.0419 80.4786 66.3796V68.6803C80.4786 69.3317 80.1529 69.6574 79.503 69.6574H78.2462C77.5963 69.6574 77.2706 69.3317 77.2706 68.6803V66.3796C77.2706 66.0419 77.4228 65.8481 77.7271 65.798C77.4228 65.7742 77.2706 65.5756 77.2706 65.2054V62.9412C77.2706 62.2914 77.5963 61.9648 78.2462 61.9648H79.503C80.1529 61.9648 80.4786 62.2914 80.4786 62.9412Z" fill="white"/>
<path d="M84.0814 68.5436V66.5408C84.0814 66.3756 84.0569 66.2707 84.0069 66.2254C83.9578 66.1809 83.8548 66.1571 83.6986 66.1571H82.9339C82.777 66.1571 82.6748 66.1809 82.6248 66.2254C82.5765 66.2707 82.5511 66.3756 82.5511 66.5408V68.5436C82.5511 68.7089 82.5765 68.8137 82.6248 68.8598C82.6748 68.9051 82.777 68.9273 82.9339 68.9273H83.6986C83.8548 68.9273 83.9578 68.9051 84.0069 68.8598C84.0569 68.8137 84.0814 68.7089 84.0814 68.5436ZM84.0814 65.0314V63.0779C84.0814 62.9126 84.0569 62.8077 84.0069 62.7625C83.9578 62.7172 83.8548 62.6949 83.6986 62.6949H82.9339C82.777 62.6949 82.6748 62.7172 82.6248 62.7625C82.5765 62.8077 82.5511 62.9126 82.5511 63.0779V65.0314C82.5511 65.1966 82.5765 65.3015 82.6248 65.3468C82.6748 65.3929 82.777 65.4151 82.9339 65.4151H83.6986C83.8548 65.4151 83.9578 65.3929 84.0069 65.3468C84.0569 65.3015 84.0814 65.1966 84.0814 65.0314ZM84.9199 62.9412V65.2054C84.9199 65.5756 84.7677 65.7742 84.4634 65.798C84.7677 65.8481 84.9199 66.0419 84.9199 66.3796V68.6803C84.9199 69.3317 84.5949 69.6574 83.9451 69.6574H82.6874C82.0376 69.6574 81.7119 69.3317 81.7119 68.6803V66.3796C81.7119 66.0419 81.8641 65.8481 82.1684 65.798C81.8641 65.7742 81.7119 65.5756 81.7119 65.2054V62.9412C81.7119 62.2914 82.0376 61.9648 82.6874 61.9648H83.9451C84.5949 61.9648 84.9199 62.2914 84.9199 62.9412Z" fill="white"/>
<path d="M43.4389 26.9505C42.587 26.7654 41.7469 26.5167 40.9418 26.1878C42.3413 26.6351 43.973 26.902 45.4906 26.902C49.1772 26.902 52.1704 25.3274 52.1704 23.3818C52.1704 23.3818 52.4018 23.988 52.5674 24.9223C52.4248 25.1391 52.2497 25.3465 52.0396 25.538C51.3272 26.1981 50.4111 26.6057 49.4887 26.8766C47.5352 27.4478 45.4114 27.3747 43.4389 26.9505Z" fill="white"/>
<path d="M51.7804 26.7622C51.8375 27.8538 51.698 28.9437 51.2257 29.9384C50.9689 30.4802 50.4816 30.9124 50.7637 31.5392C52.542 35.4884 50.2779 37.3267 50.1392 37.6445C49.9371 38.1124 50.8112 40.4671 48.3846 42.1958C49.4695 41.1694 49.9316 39.7879 49.7469 38.3753C49.6669 37.9845 49.6352 37.627 49.865 37.2742C50.1646 36.8135 50.5014 36.4306 50.6987 35.9038C51.5522 33.627 50.1749 31.702 50.2715 31.018C50.346 30.485 50.835 30.0234 51.072 29.5499C51.5054 28.6871 51.717 27.7227 51.7804 26.7622Z" fill="white"/>
<path d="M48.5898 22.5932C48.5898 22.3429 48.1991 22.1411 47.7173 22.1411C47.2347 22.1411 46.844 22.3429 46.844 22.5932C46.844 22.8418 47.2347 23.0444 47.7173 23.0444C48.1991 23.0444 48.5898 22.8418 48.5898 22.5932Z" fill="white"/>
<path d="M45.9303 24.0815C45.9303 23.9107 45.6616 23.7725 45.332 23.7725C45.0015 23.7725 44.7336 23.9107 44.7336 24.0815C44.7336 24.2523 45.0015 24.3905 45.332 24.3905C45.6616 24.3905 45.9303 24.2523 45.9303 24.0815Z" fill="white"/>
<path d="M44.031 22.5927C44.031 22.3806 43.6998 22.209 43.2908 22.209C42.8827 22.209 42.5507 22.3806 42.5507 22.5927C42.5507 22.804 42.8827 22.9756 43.2908 22.9756C43.6998 22.9756 44.031 22.804 44.031 22.5927Z" fill="white"/>
<path d="M41.7475 24.057C41.7475 23.9077 41.513 23.7861 41.2229 23.7861C40.9337 23.7861 40.6991 23.9077 40.6991 24.057C40.6991 24.2072 40.9337 24.3287 41.2229 24.3287C41.513 24.3287 41.7475 24.2072 41.7475 24.057Z" fill="white"/>
<path d="M49.4316 24.2328C49.4316 24.0835 49.197 23.9619 48.9077 23.9619C48.6185 23.9619 48.3839 24.0835 48.3839 24.2328C48.3839 24.383 48.6185 24.5037 48.9077 24.5037C49.197 24.5037 49.4316 24.383 49.4316 24.2328Z" fill="white"/>
<path d="M45.6751 21.7229C45.6751 21.6244 45.5214 21.5449 45.332 21.5449C45.1418 21.5449 44.988 21.6244 44.988 21.7229C44.988 21.8214 45.1418 21.9008 45.332 21.9008C45.5214 21.9008 45.6751 21.8214 45.6751 21.7229Z" fill="white"/>
<path d="M43.8065 24.7518C43.8065 24.6422 43.6354 24.5532 43.423 24.5532C43.2114 24.5532 43.0394 24.6422 43.0394 24.7518C43.0394 24.8615 43.2114 24.9504 43.423 24.9504C43.6354 24.9504 43.8065 24.8615 43.8065 24.7518Z" fill="white"/>
<path d="M40.9569 22.6657C40.9569 22.5672 40.8031 22.4878 40.6137 22.4878C40.4235 22.4878 40.2698 22.5672 40.2698 22.6657C40.2698 22.7643 40.4235 22.8437 40.6137 22.8437C40.8031 22.8437 40.9569 22.7643 40.9569 22.6657Z" fill="white"/>
<path fill-rule="evenodd" clip-rule="evenodd" d="M37.4263 23.3823V23.3855C37.3906 23.4816 35.8096 27.8256 38.2219 31.1551C38.2219 31.1551 36.2059 35.0129 38.8044 37.9309C38.8044 37.9309 38.7822 38.0262 38.7568 38.1986C38.2925 41.2755 40.7127 44.0306 43.8176 44.0306H43.9095C43.8105 44.1855 43.7138 44.3587 43.6092 44.5454C43.5822 44.5931 43.5553 44.6415 43.5276 44.6908C42.9792 45.6815 42.9942 45.8586 43.0663 46.6952C43.079 46.8485 43.0941 47.0249 43.1083 47.2322C43.1266 47.519 43.6227 47.3887 43.8905 47.2862C44.0688 47.2195 44.2241 47.1718 44.3676 47.1361C44.4595 47.1138 44.5459 47.098 44.6251 47.0884C44.9152 47.0424 45.1482 47.0519 45.3812 47.0606C45.5191 47.0662 45.6562 47.0717 45.8051 47.0662C45.9161 47.0662 46.0373 47.0566 46.1673 47.0344C46.3741 47.0018 46.6063 46.9446 46.8932 46.8366C47.1603 46.7349 46.8932 46.298 46.7181 46.0684C46.3662 45.6092 46.3171 45.142 46.2727 44.7234C46.245 44.4644 46.2196 44.2245 46.1261 44.0147C49.0781 43.8392 51.3232 41.173 50.8786 38.1986C50.8524 38.0262 50.831 37.9309 50.831 37.9309C53.4264 35.0129 51.4127 31.1551 51.4127 31.1551C52.9462 29.0379 52.8503 26.5092 52.5674 24.9243C52.4017 23.99 52.1695 23.3839 52.1695 23.3839H52.1687V23.3823C52.1687 21.4383 49.1779 19.8613 45.4889 19.8613C41.7992 19.8613 37.4263 21.4383 37.4263 23.3823ZM38.2211 23.3823C38.2211 22.2176 41.8142 20.6582 45.4889 20.6582C48.9568 20.6582 51.3731 22.0937 51.3731 23.3823C51.3731 24.6709 48.9568 26.1072 45.4889 26.1072C41.8142 26.1072 38.2211 24.5469 38.2211 23.3823ZM49.7517 31.9448C46.3282 33.459 42.2216 32.7297 38.9082 31.2846C42.4284 32.3023 46.1483 32.9553 49.7517 31.9448ZM49.2065 38.6546C47.6064 39.2505 45.8075 39.3347 44.1219 39.2004C42.4815 39.0701 40.8957 38.6785 39.3591 38.0977C42.6004 38.8127 45.9082 39.2767 49.2065 38.6546ZM44.6806 30.0286C44.7131 29.2246 44.9445 28.3992 45.332 27.6945C44.1592 28.8735 44.2218 30.8715 45.0182 32.2189L45.0047 32.164C44.824 31.4522 44.6513 30.7738 44.6806 30.0286ZM44.4872 39.5865C44.2487 40.1601 44.1655 40.8163 44.194 41.4328C44.2241 42.0898 44.408 42.6864 44.5982 43.3021C44.6196 43.372 44.6418 43.4411 44.6632 43.5119C43.8953 42.4274 43.5711 40.6995 44.4872 39.5865ZM44.1996 35.8479C44.2677 34.8779 44.5538 33.9047 44.9881 33.0363C44.3723 33.7799 44.0276 34.8223 43.9507 35.7732C43.8675 36.8028 44.1401 37.7299 44.6751 38.5998C44.3398 37.695 44.1306 36.8211 44.1996 35.8479Z" fill="white"/>
<path d="M45.8053 47.0646L45.3314 44.5391L46.1675 47.0328C46.0375 47.0551 45.9163 47.0646 45.8053 47.0646Z" fill="white"/>
<path d="M44.3667 47.1345L44.587 45.6553L44.6251 47.0869C44.5458 47.0964 44.4594 47.1123 44.3667 47.1345Z" fill="white"/>
<path fill-rule="evenodd" clip-rule="evenodd" d="M44.3583 61.8443C42.8026 63.4086 40.9863 64.7043 40.9863 64.7043C40.9863 64.7043 39.3657 65.7744 39.1089 67.6715C39.0257 68.3087 38.7602 68.9156 38.272 69.3295C37.0041 70.4108 35.706 69.8149 34.6457 68.8974C34.2447 68.5558 33.9071 68.1347 33.7074 67.6453C33.094 66.1271 34.1084 65.0793 35.2059 64.0322L40.9601 58.2646C41.5283 58.4854 42.3446 58.9875 43.0261 60.1299C43.2472 60.4969 43.5214 60.8703 43.8273 61.2397C43.5222 61.5408 43.2068 61.8308 42.8882 62.1144C42.4888 62.4719 42.0529 62.8064 41.6147 63.1424C40.5805 63.9361 39.5321 64.7408 38.9052 65.8761C38.6897 66.2654 38.5209 66.6825 38.4131 67.1146C38.3766 67.2592 38.3537 67.4078 38.3307 67.5563C38.295 67.7915 38.2586 68.0274 38.1682 68.2475C37.8853 68.9411 37.1863 69.2763 36.4684 69.123C37.073 69.4678 37.7847 69.2541 38.2023 68.721C38.4947 68.346 38.612 67.8606 38.7293 67.3752C38.8196 66.9994 38.91 66.6229 39.0827 66.2964C39.6906 65.1452 40.7271 64.3611 41.755 63.5826C42.1885 63.2545 42.6212 62.9271 43.019 62.5744C43.3867 62.2479 43.7512 61.9103 44.0983 61.5567C44.1831 61.6529 44.2703 61.749 44.3583 61.8443ZM48.4158 57.0991L48.839 57.5234C48.915 57.5043 48.9832 57.49 49.0418 57.4789C49.2114 57.4526 49.3667 57.3653 49.488 57.2437L50.7029 56.0258C50.9263 55.8026 50.9263 55.4379 50.7029 55.2139C51.3313 54.7277 52.077 55.3998 52.077 55.3998L57.8463 60.7424C72.4271 51.65 80.4707 37.7052 80.4707 37.7052C74.6833 31.9034 69.1296 28.4992 69.1296 28.4992C69.1296 28.4992 66.382 26.9509 64.7202 30.7721C64.4698 31.3489 64.213 31.9256 63.9103 32.4722C60.5106 38.6951 51.9375 48.4437 48.1218 51.7684L49.6172 54.1255L47.6661 52.1688L47.758 52.261C47.5353 52.0369 47.1716 52.0369 46.9481 52.261L45.2688 53.9444L46.5106 55.1893C46.5313 55.1631 46.5534 55.1368 46.578 55.1122C46.8673 54.823 47.3348 54.823 47.6241 55.1122C47.9133 55.4022 47.9133 55.8717 47.6241 56.1617C47.5995 56.1863 47.5742 56.2086 47.5472 56.2292L48.2636 56.9466C48.3872 56.9021 48.5125 56.8624 48.6392 56.8282C49.0886 56.7075 49.4008 56.4191 49.7273 56.1172C49.8406 56.0131 49.9555 55.9075 50.0784 55.8058C50.0387 55.8534 50.0007 55.9011 49.9627 55.9488L49.9611 55.9496C49.5974 56.3992 49.255 56.8234 48.6884 57.003C48.5965 57.0324 48.5053 57.0642 48.4158 57.0991ZM36.779 67.0336C36.4898 67.3236 36.0214 67.3236 35.7329 67.0336C35.4437 66.7444 35.4437 66.2741 35.7329 65.9849C36.0214 65.6958 36.4898 65.6958 36.779 65.9849C37.0683 66.2741 37.0683 66.7444 36.779 67.0336ZM41.1559 61.598C41.4451 61.888 41.9127 61.888 42.2019 61.598C42.4912 61.3081 42.4912 60.8385 42.2019 60.5494C41.9127 60.2594 41.4451 60.2594 41.1559 60.5494C40.8666 60.8385 40.8666 61.3081 41.1559 61.598ZM62.0646 56.396C68.9124 51.3609 74.898 44.798 78.9872 37.3151C77.8001 38.8548 76.6026 40.388 75.3624 41.8856C72.4508 45.4026 69.3586 48.7495 66.0682 51.9114C63.4998 54.3789 60.7562 56.6058 57.9976 58.8445L57.9968 58.8453C57.7337 59.059 57.4698 59.2735 57.2059 59.488C58.8797 58.5442 60.5161 57.5353 62.0646 56.396ZM67.1626 32.303C67.6112 32.7527 68.3387 32.7527 68.7872 32.303C69.2358 31.8534 69.2358 31.1241 68.7872 30.6744C68.3387 30.2248 67.6112 30.2248 67.1626 30.6744C66.7141 31.1241 66.7141 31.8534 67.1626 32.303Z" fill="white"/>
<path fill-rule="evenodd" clip-rule="evenodd" d="M38.9163 56.0258C38.6928 55.8026 38.6928 55.4379 38.9163 55.2139C38.2879 54.7277 37.5422 55.3998 37.5422 55.3998L31.7737 60.7424C17.1929 51.65 9.14844 37.7052 9.14844 37.7052C14.9359 31.9034 20.4896 28.4992 20.4896 28.4992C20.4896 28.4992 23.2371 26.9509 24.8997 30.7721C25.1494 31.3489 25.4061 31.9256 25.7089 32.4722C29.1086 38.6951 37.6824 48.4437 41.4982 51.7684C41.6567 51.913 41.812 52.0449 41.9594 52.1625C41.812 52.0457 41.6567 51.913 41.4982 51.7684L40.0028 54.1255L41.9008 52.2212L41.8612 52.261C42.0839 52.0369 42.4476 52.0369 42.6711 52.261L54.4132 64.0322C55.5108 65.0793 56.526 66.1271 55.9118 67.6453C55.7121 68.1347 55.3745 68.5558 54.9735 68.8974C53.914 69.8149 52.6151 70.4108 51.3471 69.3295C50.859 68.9156 50.5935 68.3087 50.5103 67.6715C50.2535 65.7744 48.6329 64.7043 48.6329 64.7043C48.6329 64.7043 44.9574 62.0819 43.5832 59.7939C42.5118 57.9992 41.1273 57.5813 40.5774 57.4789C40.4078 57.4526 40.2524 57.3653 40.1312 57.2437L38.9163 56.0258ZM53.8863 67.0336C53.597 67.3236 53.1294 67.3236 52.8402 67.0336C52.5509 66.7444 52.5509 66.2741 52.8402 65.9849C53.1294 65.6958 53.597 65.6958 53.8863 65.9849C54.1755 66.2741 54.1755 66.7444 53.8863 67.0336ZM47.418 61.598C47.7073 61.888 48.1748 61.888 48.4641 61.598C48.7534 61.3081 48.7534 60.8385 48.4641 60.5494C48.1748 60.2594 47.7073 60.2594 47.418 60.5494C47.1288 60.8385 47.1288 61.3081 47.418 61.598ZM43.042 56.1617C42.7527 56.4516 42.2844 56.4516 41.9959 56.1617C41.7066 55.8717 41.7066 55.4022 41.9959 55.1122C42.2844 54.823 42.7527 54.823 43.042 55.1122C43.3304 55.4022 43.3304 55.8717 43.042 56.1617ZM10.632 37.3151C14.7219 44.798 20.7075 51.3609 27.5546 56.396C29.1031 57.5353 30.7403 58.5442 32.4132 59.488C32.1493 59.2735 31.8862 59.059 31.6223 58.8453L31.6215 58.8445C28.8637 56.6058 26.1202 54.3797 23.5517 51.9114C20.2606 48.7495 17.1683 45.4026 14.2568 41.8856C13.0173 40.388 11.8199 38.8548 10.632 37.3151ZM39.6557 55.9464C39.6177 55.8995 39.5796 55.8526 39.5416 55.8058C39.6636 55.9067 39.7777 56.0123 39.8903 56.1164C40.2176 56.4183 40.5306 56.7075 40.9799 56.8282C41.8295 57.057 42.6069 57.5289 43.2393 58.1366C43.6316 58.514 43.9351 58.9478 44.241 59.3847C44.3733 59.573 44.5057 59.7629 44.6459 59.9488C45.2498 60.748 45.9844 61.4495 46.7302 62.1144C47.1304 62.4711 47.5654 62.8056 48.0037 63.1416C49.0387 63.9361 50.0871 64.7408 50.7139 65.8761C50.9287 66.2654 51.0983 66.6825 51.2069 67.1146C51.2433 67.2592 51.2655 67.4078 51.2885 67.5563C51.3249 67.7915 51.3614 68.0274 51.451 68.2475C51.7347 68.9411 52.4328 69.2763 53.1508 69.123C52.547 69.4678 51.8345 69.2541 51.4177 68.721C51.1252 68.346 51.008 67.8614 50.8907 67.376C50.8003 66.9994 50.7092 66.6229 50.5364 66.2964C49.9286 65.1452 48.892 64.3611 47.8642 63.5826C47.4307 63.2544 46.9988 62.9271 46.6002 62.5744C45.8687 61.9246 45.1515 61.231 44.5524 60.454C44.344 60.1839 44.1594 59.8971 43.9755 59.6111C43.7251 59.2227 43.4747 58.8342 43.1648 58.487C42.5633 57.8125 41.7946 57.2771 40.9308 57.003C40.3626 56.8227 40.0202 56.3984 39.6557 55.9464ZM20.8327 32.303C21.2813 32.7527 22.008 32.7527 22.4565 32.303C22.9051 31.8534 22.9051 31.1241 22.4565 30.6744C22.008 30.2248 21.2813 30.2248 20.8327 30.6744C20.3842 31.1241 20.3842 31.8534 20.8327 32.303Z" fill="white"/>
<path d="M8.85424 21.9721C8.83284 21.9514 8.8154 21.9038 8.79004 21.8918L7.73367 21.3898C7.70118 21.3747 7.59578 21.4144 7.57518 21.4549L6.93802 22.8007L8.20915 23.4037L8.84552 22.0579C8.84948 22.0491 8.85661 21.9832 8.85424 21.9721ZM10.8362 25.5947L6.01716 23.3075C5.97754 23.2893 5.96724 23.244 5.99022 23.1955L6.95466 21.1602C7.18131 20.6811 7.72654 20.434 8.10217 20.612L9.15775 21.1133C9.3527 21.2046 9.48822 21.389 9.5421 21.6241L9.53655 21.6201C9.6055 21.8426 9.57301 22.1151 9.46207 22.3494L8.82333 23.696L11.2008 24.8249C11.2404 24.8424 11.2499 24.8877 11.2277 24.9361L10.9392 25.5447C10.9163 25.5931 10.8758 25.613 10.8362 25.5947Z" fill="white"/>
<path d="M11.2865 17.9684C11.296 17.9534 11.3087 17.8962 11.3079 17.8842C11.2889 17.862 11.2794 17.8111 11.2556 17.7953L10.2872 17.1422C10.2452 17.1144 10.1636 17.1462 10.1216 17.1827L9.29185 18.4181L10.4552 19.2038L11.2865 17.9684ZM12.7249 21.7627L8.30442 18.7812C8.26876 18.7573 8.264 18.712 8.29491 18.6668L9.55178 16.7974C9.86243 16.3359 10.4053 16.1833 10.7674 16.4272L11.7366 17.0803C11.8674 17.1685 11.9688 17.313 12.01 17.4823C12.182 17.4568 12.3484 17.4942 12.4784 17.5808L14.3621 18.8519C14.4818 18.9321 14.6355 18.8193 14.6823 18.8511C14.7179 18.8749 14.7219 18.9202 14.6918 18.9655L14.2108 19.6805C14.1814 19.7258 14.1371 19.7393 14.1022 19.7154L11.9982 18.2958C11.9419 18.3013 11.9039 18.3085 11.8516 18.349L11.0202 19.5843L13.2012 21.0548C13.236 21.0795 13.2408 21.1256 13.2099 21.1692L12.835 21.7285C12.8049 21.773 12.7613 21.7873 12.7249 21.7627Z" fill="white"/>
<path d="M17.0287 15.2652C17.0652 15.2255 17.1056 15.2136 17.1373 15.2422L17.5351 15.6037C17.5668 15.6331 17.5644 15.6783 17.528 15.7181L15.4105 18.0593C15.374 18.0998 15.3288 18.1062 15.2971 18.0783L11.3474 14.493C11.3157 14.4636 11.3181 14.4184 11.3546 14.3778L13.4721 12.0366C13.5085 11.9969 13.5537 11.9897 13.5862 12.0183L13.9888 12.3846C14.0205 12.4132 14.0181 12.4593 13.9808 12.499L12.3824 14.269L13.4221 15.2128L14.2218 14.3286C14.2582 14.2881 14.3034 14.2809 14.3359 14.3103L14.7337 14.671C14.7654 14.7004 14.763 14.7465 14.7266 14.7862L13.9254 15.6704L15.4287 17.0344L17.0287 15.2652Z" fill="white"/>
<path d="M18.8555 14.3888C18.8833 14.4214 18.873 14.4667 18.8326 14.5008L18.3151 14.9306C18.2739 14.9648 18.2366 14.9489 18.2136 14.9203L14.8107 10.8067C14.787 10.7797 14.779 10.74 14.8194 10.7058L15.2751 10.3276C15.3924 10.3149 15.4566 10.3642 15.5438 10.4135L18.2628 11.8855L17.334 8.93579L17.3387 8.94055C17.315 8.88494 17.1993 8.73003 17.288 8.65535L17.75 8.27243C17.7912 8.23748 17.8372 8.23668 17.8649 8.27005L21.2686 12.3837C21.2972 12.417 21.2861 12.4623 21.2457 12.4965L20.721 12.9318C20.687 12.9604 20.6362 12.9557 20.614 12.9279L18.7977 10.732C18.9903 11.3461 19.1852 11.9602 19.3786 12.5735L19.6353 13.4045C19.6464 13.4323 19.6385 13.4776 19.6028 13.5062C19.5759 13.5292 19.5292 13.53 19.5046 13.5134C18.6772 13.0621 17.8546 12.6172 17.0218 12.1708L18.8555 14.3888Z" fill="white"/>
<path d="M22.1298 11.8392L19.158 7.40224C19.135 7.36649 19.1485 7.32279 19.1937 7.2934L19.7579 6.91286C19.8031 6.88188 19.849 6.88744 19.8728 6.92239L22.8438 11.3586C22.8668 11.3951 22.8533 11.4388 22.8089 11.469L22.2431 11.8487C22.1995 11.8789 22.1528 11.8749 22.1298 11.8392Z" fill="white"/>
<path d="M24.0828 4.40245C24.1295 4.37703 24.1755 4.38497 24.1961 4.42231L26.1179 7.95837C26.4951 8.65191 26.1266 9.53136 25.262 10.0033C24.4053 10.4704 23.4456 10.3171 23.0676 9.62431L21.1458 6.08746C21.1244 6.05012 21.1427 6.00722 21.1902 5.98259L21.779 5.66005C21.8266 5.63463 21.8725 5.64178 21.8924 5.67991L23.8141 9.21597C23.9068 9.38598 24.0923 9.48131 24.2983 9.52342L24.2952 9.51786C24.502 9.56076 24.7358 9.52262 24.9402 9.4114C25.3579 9.1826 25.5536 8.70037 25.3713 8.36592L23.4488 4.82986C23.429 4.79252 23.4464 4.75041 23.494 4.7242L24.0828 4.40245Z" fill="white"/>
<path d="M28.4135 8.37741C28.4293 8.41793 28.4063 8.45765 28.3564 8.47751L27.7296 8.71981C27.6796 8.73967 27.6503 8.71267 27.6368 8.6793L25.7151 3.69259C25.7024 3.65922 25.7064 3.6195 25.7571 3.60043L26.3087 3.38673C26.4236 3.41056 26.4679 3.47809 26.5353 3.55277L28.6457 5.81454L28.7011 2.7194L28.7035 2.72655C28.6996 2.66617 28.6385 2.48265 28.7463 2.44055L29.3066 2.22287C29.3573 2.2038 29.4001 2.21731 29.416 2.25783L31.3377 7.24374C31.3528 7.28346 31.3298 7.32398 31.2799 7.34304L30.6459 7.58933C30.6031 7.60601 30.5571 7.58535 30.5445 7.55198L29.519 4.89061C29.5071 5.5349 29.496 6.17839 29.4849 6.82189L29.4651 7.6926C29.4683 7.72279 29.4445 7.76251 29.4025 7.7784C29.37 7.79191 29.3264 7.7784 29.3066 7.75457C28.6655 7.06261 28.0283 6.3786 27.3777 5.68982L28.4135 8.37741Z" fill="white"/>
<path d="M36.3027 4.83171L36.3756 4.78722L36.286 4.74749L36.3027 4.83171ZM35.3985 4.36537L35.4009 4.37967C35.4056 4.35663 35.4381 4.33518 35.4666 4.33756L35.5213 4.34074L36.286 4.74749C36.2837 4.73319 36.2884 4.7173 36.286 4.703L35.7638 2.03845C35.6885 1.65791 35.2519 1.42911 34.7764 1.52286C34.3025 1.61581 33.9554 1.99079 34.0314 2.37847L34.5553 5.04382C34.6298 5.42356 35.106 5.65952 35.5704 5.56815C35.6846 5.54591 35.8272 5.48156 35.9263 5.42516C35.8034 5.3616 34.9983 4.97788 34.9832 4.90003C34.9697 4.83012 35.3319 4.44402 35.3985 4.36537ZM37.0666 5.15028C37.1491 5.19318 37.5199 5.3616 37.5302 5.418C37.5461 5.49506 37.1705 5.8613 37.0952 5.94234L37.1039 5.94074C37.0888 5.95822 37.0635 5.97014 37.0381 5.9757C36.9684 5.98921 36.7092 5.83509 36.6379 5.79775C36.3835 6.03211 36.0531 6.1624 35.7012 6.23072C34.7597 6.41582 33.8698 5.96776 33.72 5.20748L33.197 2.54292C33.0488 1.7882 33.7034 1.03031 34.6432 0.8452C35.5578 0.665657 36.4628 1.13994 36.607 1.87241L37.13 4.53776C37.1681 4.73399 37.1372 4.94611 37.0666 5.15028Z" fill="white"/>
<path d="M41.5454 0.000406329C41.5977 -0.00356588 41.6349 0.0218573 41.6389 0.0647571L41.944 4.08225C42.005 4.87113 41.3084 5.52177 40.3266 5.59725C39.3526 5.67192 38.5387 5.13568 38.4793 4.34838L38.1726 0.3301C38.1702 0.2872 38.2027 0.255424 38.2566 0.251451L38.9278 0.199811C38.9809 0.195838 39.0182 0.222056 39.0214 0.264955L39.3272 4.28324C39.3423 4.47708 39.4707 4.63915 39.6427 4.76309L39.6419 4.75593C39.813 4.87987 40.0421 4.94183 40.2751 4.92435C40.7482 4.8886 41.1254 4.52713 41.0961 4.14819L40.7902 0.129902C40.787 0.087002 40.8203 0.0552252 40.8742 0.051253L41.5454 0.000406329Z" fill="white"/>
<path d="M45.3585 1.7686L44.6643 3.50763L45.9172 3.55768L45.3585 1.7686ZM46.5044 5.512L46.1319 4.2552L44.4139 4.18688L43.9178 5.41032C43.9075 5.43177 43.852 5.48023 43.8163 5.47784L43.1364 5.45083C43.0912 5.45004 43.0405 5.39681 43.05 5.36106L45.1001 0.113775C45.1104 0.0851756 45.1667 0.0438658 45.2016 0.0454547L45.6573 0.0637289C45.6937 0.0653178 45.7452 0.117752 45.7539 0.139202L47.4007 5.53345C47.4086 5.5692 47.3531 5.61767 47.308 5.61608L46.6003 5.58827C46.5646 5.58668 46.5131 5.5414 46.5044 5.512Z" fill="white"/>
<path d="M48.3996 5.70403L49.3007 0.436886C49.3078 0.394781 49.3474 0.372537 49.4013 0.381276L50.0717 0.496467C50.1241 0.506 50.155 0.540162 50.1478 0.583062L49.3482 5.25517L51.6955 5.65954C51.7494 5.66828 51.7803 5.69529 51.774 5.73819L51.6829 6.26967C51.6749 6.31178 51.6353 6.33402 51.583 6.32449L48.4749 5.78983C48.4226 5.7803 48.3909 5.74614 48.3996 5.70403Z" fill="white"/>
<path d="M52.6854 6.53235L54.0056 1.35975C54.0159 1.31764 54.0579 1.29937 54.1102 1.31208L54.7696 1.48129C54.8211 1.49401 54.8488 1.53135 54.8385 1.57345L53.5182 6.74606C53.5079 6.78737 53.4675 6.80644 53.4144 6.79293L52.7551 6.62451C52.7028 6.611 52.6751 6.57446 52.6854 6.53235Z" fill="white"/>
<path d="M56.5023 7.67557C56.488 7.71688 56.4444 7.73198 56.3945 7.7145L55.7502 7.49285C55.7003 7.47537 55.6757 7.43644 55.6892 7.39593L57.2242 2.93038L56.133 2.5546C56.0823 2.53712 56.0577 2.4974 56.0712 2.45689L56.2487 1.94209C56.2637 1.90078 56.3058 1.88568 56.3565 1.90316L59.3378 2.92958C59.3877 2.94705 59.4123 2.98598 59.398 3.0265L59.2221 3.54289C59.207 3.58261 59.1642 3.5985 59.1135 3.58102L58.0381 3.21081L56.5023 7.67557Z" fill="white"/>
<path d="M61.7222 4.00246L61.7801 5.56592C62.0677 5.33792 62.3641 5.11388 62.6645 4.89938C62.7794 4.80246 62.8974 4.69998 63.0219 4.62451C63.0512 4.60623 63.0813 4.60544 63.1138 4.62133L63.7684 4.93354C63.8167 4.95738 63.831 5.0122 63.8128 5.05033C63.7874 5.10276 61.8958 6.5129 61.7111 6.64716L60.4305 9.33793C60.4114 9.37606 60.3678 9.38719 60.3195 9.36415L59.7053 9.06941C59.6562 9.04637 59.6364 9.00427 59.6546 8.96613L60.9614 6.22531C60.959 5.83365 60.8655 3.69501 60.8877 3.64973C60.9059 3.6116 60.9567 3.58776 61.0066 3.61159L61.6675 3.92778C61.7 3.94367 61.7175 3.9683 61.7222 4.00246Z" fill="white"/>
<path d="M64.5688 11.7043C64.5434 11.7392 64.4983 11.7424 64.4555 11.7106L63.9079 11.319C63.8643 11.288 63.8698 11.2483 63.8912 11.2197L66.9867 6.87248C67.0073 6.84309 67.0421 6.82402 67.0865 6.8558L67.5675 7.19979C67.6095 7.31022 67.5786 7.3849 67.554 7.48182L66.8305 10.492L69.4378 8.83952L69.433 8.84508C69.4814 8.80933 69.601 8.6568 69.6953 8.72512L70.1843 9.07388C70.2279 9.10566 70.2406 9.15015 70.216 9.1851L67.1206 13.5323C67.096 13.5672 67.05 13.5696 67.0057 13.5386L66.4517 13.1414C66.4153 13.1152 66.4065 13.0652 66.4279 13.0358L68.0795 10.7168C67.5366 11.0608 66.9954 11.404 66.4525 11.748L65.7179 12.2095C65.6925 12.2278 65.6481 12.231 65.6117 12.204C65.5816 12.1833 65.5697 12.1396 65.5784 12.1102C65.8027 11.1942 66.0206 10.283 66.237 9.36226L64.5688 11.7043Z" fill="white"/>
<path d="M70.6407 15.9601C70.6803 15.9967 70.6922 16.0372 70.6621 16.0682L70.2944 16.4606C70.2642 16.4924 70.2191 16.4884 70.1795 16.4511L67.8836 14.2862C67.844 14.2497 67.8377 14.2036 67.867 14.1718L71.5195 10.2799C71.5481 10.2489 71.594 10.2521 71.6337 10.2894L73.9287 12.455C73.9683 12.4916 73.9746 12.5369 73.9445 12.5679L73.5721 12.9667C73.5427 12.9976 73.4968 12.9945 73.4571 12.9571L71.7224 11.3198L70.7603 12.3454L71.6281 13.1645C71.6677 13.201 71.6741 13.2463 71.644 13.2781L71.277 13.6705C71.2477 13.7015 71.2018 13.6983 71.1629 13.661L70.2944 12.8427L68.9067 14.3236L70.6407 15.9601Z" fill="white"/>
<path d="M75.2284 16.5697L73.458 17.1727L74.2354 18.1578L75.2284 16.5697ZM73.1378 19.877L73.8479 18.7759L72.7804 17.4245L71.5307 17.8424C71.5077 17.8496 71.4364 17.8376 71.4134 17.8098L70.9902 17.2744C70.9632 17.2394 70.9696 17.1663 71.0029 17.1512L76.3141 15.2962C76.341 15.2859 76.4092 15.301 76.4314 15.3296L76.7143 15.6879C76.7365 15.7165 76.7301 15.7896 76.7198 15.8102L73.7044 20.5729C73.6823 20.6023 73.6093 20.5912 73.5816 20.5554L73.1426 19.9993C73.1196 19.9715 73.1204 19.9024 73.1378 19.877Z" fill="white"/>
<path d="M75.2379 23.2421C75.2014 23.2627 75.1578 23.2452 75.1325 23.1992L74.7964 22.6049C74.7711 22.558 74.7766 22.5128 74.8139 22.4913L78.9197 20.1668L78.3515 19.1586C78.3245 19.1118 78.3317 19.0657 78.3689 19.045L78.8436 18.7773C78.8817 18.7559 78.9237 18.7725 78.9498 18.8194L80.5023 21.5706C80.5292 21.6166 80.5221 21.6619 80.4841 21.6834L80.0094 21.9519C79.9737 21.9733 79.9301 21.9559 79.904 21.909L79.3437 20.9167L75.2379 23.2421Z" fill="white"/>
</svg>
