<svg width="91" height="90" viewBox="0 0 91 90" fill="none" xmlns="http://www.w3.org/2000/svg">
<path d="M11.9237 89.7713L10.231 81.7825H10.1549L8.46217 89.7713H3.84045L0.77832 76.6536H5.15279L6.65533 84.0895H6.7314L8.21492 76.6536H12.3612L13.9398 84.0895H14.0158L15.4233 76.6536H19.6076L16.5454 89.7713H11.9237Z" fill="#484848"/>
<path d="M26.1502 76.4246C27.19 76.4246 28.0902 76.5835 28.851 76.9012C29.6244 77.219 30.2077 77.6512 30.6008 78.1978C31.0065 78.7316 31.2094 79.329 31.2094 79.99C31.2094 80.651 31.0319 81.2484 30.6769 81.7823C30.3218 82.3034 29.8654 82.672 29.3075 82.8881V82.9644C30.0302 83.1932 30.5881 83.5936 30.9812 84.1656C31.3869 84.7249 31.5898 85.4049 31.5898 86.2057C31.5391 87.3243 31.0509 88.2395 30.1253 88.9513C29.2124 89.6504 27.862 89.9999 26.0742 89.9999C24.8442 89.9999 23.8108 89.8347 22.974 89.5042C22.1371 89.1737 21.5158 88.7225 21.1101 88.1505C20.7043 87.5785 20.5015 86.9366 20.5015 86.2248V85.8244H23.8489C23.8489 86.8667 24.5082 87.3878 25.8269 87.3878C27.1456 87.3878 27.8049 86.8031 27.8049 85.6337C27.8049 85.1888 27.6781 84.852 27.4245 84.6232C27.1836 84.3817 26.8666 84.2609 26.4736 84.2609H25.0851V81.9157H26.1692C26.5623 81.9157 26.8793 81.8013 27.1202 81.5725C27.3738 81.331 27.5006 80.9878 27.5006 80.5429C27.5006 80.1235 27.3485 79.7676 27.0441 79.4752C26.7525 79.1828 26.3468 79.0367 25.8269 79.0367C25.2817 79.0367 24.8569 79.1765 24.5526 79.4561C24.2483 79.7358 24.0961 80.079 24.0961 80.4857H20.9199V80.0091C20.9199 79.3481 21.1228 78.7443 21.5285 78.1978C21.9469 77.6512 22.5492 77.219 23.3354 76.9012C24.1342 76.5835 25.0725 76.4246 26.1502 76.4246Z" fill="#484848"/>
<path d="M45.0363 89.7713V85.0428C45.0363 84.4581 45.0553 83.8607 45.0934 83.2506C45.1441 82.6277 45.1948 82.1066 45.2455 81.6871C45.2962 81.2677 45.3279 81.0007 45.3406 80.8863H45.2645L42.8491 89.7713H39.5587L37.1242 80.9054H37.0481C37.0608 81.0198 37.0925 81.2867 37.1432 81.7062C37.2066 82.1129 37.2637 82.6277 37.3144 83.2506C37.3651 83.8607 37.3905 84.4581 37.3905 85.0428V89.7713H33.5295V76.6536H39.4636L41.4416 84.223H41.5177L43.4767 76.6536H49.2016V89.7713H45.0363Z" fill="#484848"/>
<path d="M51.7568 76.6536H63.0734V79.7995H55.9601V81.6109H62.0464V84.6234H55.9601V86.6254H63.2065V89.7713H51.7568V76.6536Z" fill="#484848"/>
<path d="M74.2503 89.7713L73.6988 87.9219H69.1151L68.5635 89.7713H64.2651L69.039 76.6536H73.927L78.7009 89.7713H74.2503ZM69.99 84.9856H72.8239L71.4545 80.3143H71.3784L69.99 84.9856Z" fill="#484848"/>
<path d="M86.4988 80.0093V89.7713H82.2955V80.0093H77.9971V76.6536H90.7781V80.0093H86.4988Z" fill="#484848"/>
<path d="M6.02378 68.9283H8.13336V69.6584H5.17188V61.9658H8.04697V62.6959H6.02378V65.2921H7.67609V66.0214H6.02378V68.9283Z" fill="#1C4945"/>
<path d="M11.0688 68.5446V66.4425C11.0688 66.278 11.0442 66.1732 10.9943 66.1279C10.9451 66.0818 10.8421 66.0588 10.686 66.0588H9.84675C9.19692 66.0588 8.8728 65.7338 8.8728 65.0824V62.9422C8.8728 62.2923 9.19692 61.9658 9.84675 61.9658H10.9332C11.5823 61.9658 11.9072 62.2923 11.9072 62.9422V64.1299H11.0561V63.0788C11.0561 62.9136 11.0339 62.8087 10.9879 62.7634C10.9427 62.7182 10.8381 62.6959 10.6733 62.6959H10.1059C9.94106 62.6959 9.83644 62.7182 9.79207 62.7634C9.74689 62.8087 9.72313 62.9136 9.72313 63.0788V64.9466C9.72313 65.1023 9.74689 65.2063 9.79207 65.2548C9.83644 65.3048 9.94106 65.3303 10.1059 65.3303H10.9451C11.595 65.3303 11.9191 65.6552 11.9191 66.3066V68.6812C11.9191 69.3327 11.595 69.6584 10.9451 69.6584H9.87132C9.22149 69.6584 8.89736 69.3327 8.89736 68.6812V67.4943H9.74849V68.5446C9.74849 68.7098 9.77067 68.8147 9.81664 68.8608C9.86102 68.906 9.96642 68.9283 10.1313 68.9283H10.686C10.8421 68.9283 10.9451 68.906 10.9943 68.8608C11.0442 68.8147 11.0688 68.7098 11.0688 68.5446Z" fill="#1C4945"/>
<path d="M15.7816 61.9658V62.6959H14.5469V69.6584H13.7092V62.6959H12.4753V61.9658H15.7816Z" fill="#1C4945"/>
<path d="M19.0751 68.5446V63.0788C19.0751 62.9136 19.0506 62.8087 19.0014 62.7634C18.9523 62.7182 18.8493 62.6959 18.6924 62.6959H17.3729V68.9283H18.6924C18.8493 68.9283 18.9523 68.906 19.0014 68.8608C19.0506 68.8147 19.0751 68.7098 19.0751 68.5446ZM16.521 61.9658H18.9523C19.6013 61.9658 19.9271 62.2923 19.9271 62.9422V68.6812C19.9271 69.3327 19.6013 69.6584 18.9523 69.6584H16.521V61.9658Z" fill="#1C4945"/>
<path d="M72.4728 61.9658V69.6584H71.6336V62.6959H70.7952V61.9658H72.4728Z" fill="#1C4945"/>
<path d="M74.8787 65.7251H75.9636V63.0788C75.9636 62.9136 75.9391 62.8087 75.8899 62.7634C75.84 62.7182 75.7378 62.6959 75.5809 62.6959H74.8787C74.7139 62.6959 74.6093 62.7182 74.5633 62.7634C74.5181 62.8087 74.496 62.9136 74.496 63.0788V65.3414C74.496 65.4995 74.5181 65.602 74.5633 65.652C74.6093 65.7005 74.7139 65.7251 74.8787 65.7251ZM74.6188 61.9658H75.84C76.4898 61.9658 76.8155 62.2923 76.8155 62.9422V68.6812C76.8155 69.3327 76.4898 69.6584 75.84 69.6584H74.6315C73.9816 69.6584 73.6567 69.3327 73.6567 68.6812V67.2345H74.496V68.5446C74.496 68.7098 74.5181 68.8147 74.5633 68.8608C74.6093 68.906 74.7139 68.9283 74.8787 68.9283H75.5809C75.7378 68.9283 75.84 68.906 75.8899 68.8608C75.9391 68.8147 75.9636 68.7098 75.9636 68.5446V66.4552H74.6188C73.969 66.4552 73.644 66.1295 73.644 65.478V62.9422C73.644 62.2923 73.969 61.9658 74.6188 61.9658Z" fill="#1C4945"/>
<path d="M80.4173 68.5446V66.5418C80.4173 66.3765 80.3919 66.2717 80.3436 66.2264C80.2937 66.1819 80.1914 66.1581 80.0353 66.1581H79.2698C79.1137 66.1581 79.0114 66.1819 78.9615 66.2264C78.9116 66.2717 78.8878 66.3765 78.8878 66.5418V68.5446C78.8878 68.7098 78.9116 68.8147 78.9615 68.8608C79.0114 68.906 79.1137 68.9283 79.2698 68.9283H80.0353C80.1914 68.9283 80.2937 68.906 80.3436 68.8608C80.3919 68.8147 80.4173 68.7098 80.4173 68.5446ZM80.4173 65.0324V63.0788C80.4173 62.9136 80.3919 62.8087 80.3436 62.7634C80.2937 62.7182 80.1914 62.6959 80.0353 62.6959H79.2698C79.1137 62.6959 79.0114 62.7182 78.9615 62.7634C78.9116 62.8087 78.8878 62.9136 78.8878 63.0788V65.0324C78.8878 65.1976 78.9116 65.3025 78.9615 65.3477C79.0114 65.3938 79.1137 65.4161 79.2698 65.4161H80.0353C80.1914 65.4161 80.2937 65.3938 80.3436 65.3477C80.3919 65.3025 80.4173 65.1976 80.4173 65.0324ZM81.2565 62.9422V65.2063C81.2565 65.5765 81.1044 65.7752 80.8001 65.799C81.1044 65.849 81.2565 66.0429 81.2565 66.3805V68.6812C81.2565 69.3327 80.9308 69.6584 80.281 69.6584H79.0241C78.3743 69.6584 78.0486 69.3327 78.0486 68.6812V66.3805C78.0486 66.0429 78.2007 65.849 78.505 65.799C78.2007 65.7752 78.0486 65.5765 78.0486 65.2063V62.9422C78.0486 62.2923 78.3743 61.9658 79.0241 61.9658H80.281C80.9308 61.9658 81.2565 62.2923 81.2565 62.9422Z" fill="#1C4945"/>
<path d="M84.8597 68.5446V66.5418C84.8597 66.3765 84.8352 66.2717 84.7852 66.2264C84.7361 66.1819 84.6331 66.1581 84.477 66.1581H83.7122C83.5553 66.1581 83.4531 66.1819 83.4031 66.2264C83.3548 66.2717 83.3295 66.3765 83.3295 66.5418V68.5446C83.3295 68.7098 83.3548 68.8147 83.4031 68.8608C83.4531 68.906 83.5553 68.9283 83.7122 68.9283H84.477C84.6331 68.9283 84.7361 68.906 84.7852 68.8608C84.8352 68.8147 84.8597 68.7098 84.8597 68.5446ZM84.8597 65.0324V63.0788C84.8597 62.9136 84.8352 62.8087 84.7852 62.7634C84.7361 62.7182 84.6331 62.6959 84.477 62.6959H83.7122C83.5553 62.6959 83.4531 62.7182 83.4031 62.7634C83.3548 62.8087 83.3295 62.9136 83.3295 63.0788V65.0324C83.3295 65.1976 83.3548 65.3025 83.4031 65.3477C83.4531 65.3938 83.5553 65.4161 83.7122 65.4161H84.477C84.6331 65.4161 84.7361 65.3938 84.7852 65.3477C84.8352 65.3025 84.8597 65.1976 84.8597 65.0324ZM85.6982 62.9422V65.2063C85.6982 65.5765 85.546 65.7752 85.2417 65.799C85.546 65.849 85.6982 66.0429 85.6982 66.3805V68.6812C85.6982 69.3327 85.3733 69.6584 84.7234 69.6584H83.4658C82.8159 69.6584 82.4902 69.3327 82.4902 68.6812V66.3805C82.4902 66.0429 82.6424 65.849 82.9467 65.799C82.6424 65.7752 82.4902 65.5765 82.4902 65.2063V62.9422C82.4902 62.2923 82.8159 61.9658 83.4658 61.9658H84.7234C85.3733 61.9658 85.6982 62.2923 85.6982 62.9422Z" fill="#1C4945"/>
<path d="M44.2171 26.9509C43.3652 26.7658 42.5251 26.5172 41.72 26.1883C43.1195 26.6355 44.7512 26.9025 46.2688 26.9025C49.9554 26.9025 52.9486 25.3279 52.9486 23.3823C52.9486 23.3823 53.18 23.9885 53.3456 24.9227C53.203 25.1396 53.0278 25.347 52.8178 25.5384C52.1054 26.1986 51.1893 26.6062 50.2668 26.8771C48.3134 27.4483 46.1895 27.3752 44.2171 26.9509Z" fill="#484848"/>
<path d="M52.5586 26.7627C52.6157 27.8543 52.4762 28.9442 52.0039 29.9389C51.7471 30.4807 51.2597 30.9128 51.5419 31.5397C53.3202 35.4888 51.0561 37.3271 50.9174 37.6449C50.7153 38.1128 51.5894 40.4676 49.1628 42.1963C50.2477 41.1698 50.7098 39.7883 50.5251 38.3758C50.4451 37.9849 50.4134 37.6274 50.6432 37.2747C50.9428 36.8139 51.2796 36.431 51.4769 35.9043C52.3304 33.6274 50.9531 31.7025 51.0497 31.0185C51.1242 30.4854 51.6132 30.0239 51.8501 29.5504C52.2836 28.6876 52.4952 27.7232 52.5586 26.7627Z" fill="#484848"/>
<path d="M49.3681 22.5927C49.3681 22.3424 48.9775 22.1406 48.4956 22.1406C48.013 22.1406 47.6223 22.3424 47.6223 22.5927C47.6223 22.8413 48.013 23.0439 48.4956 23.0439C48.9775 23.0439 49.3681 22.8413 49.3681 22.5927Z" fill="#484848"/>
<path d="M46.7084 24.0798C46.7084 23.909 46.4397 23.7708 46.11 23.7708C45.7796 23.7708 45.5117 23.909 45.5117 24.0798C45.5117 24.2506 45.7796 24.3888 46.11 24.3888C46.4397 24.3888 46.7084 24.2506 46.7084 24.0798Z" fill="#484848"/>
<path d="M44.8095 22.5927C44.8095 22.3806 44.4782 22.209 44.0693 22.209C43.6612 22.209 43.3291 22.3806 43.3291 22.5927C43.3291 22.804 43.6612 22.9756 44.0693 22.9756C44.4782 22.9756 44.8095 22.804 44.8095 22.5927Z" fill="#484848"/>
<path d="M42.5257 24.0578C42.5257 23.9084 42.2912 23.7869 42.0011 23.7869C41.7119 23.7869 41.4773 23.9084 41.4773 24.0578C41.4773 24.2079 41.7119 24.3295 42.0011 24.3295C42.2912 24.3295 42.5257 24.2079 42.5257 24.0578Z" fill="#484848"/>
<path d="M50.2098 24.234C50.2098 24.0847 49.9752 23.9631 49.6859 23.9631C49.3967 23.9631 49.1621 24.0847 49.1621 24.234C49.1621 24.3842 49.3967 24.5049 49.6859 24.5049C49.9752 24.5049 50.2098 24.3842 50.2098 24.234Z" fill="#484848"/>
<path d="M46.4534 21.7229C46.4534 21.6244 46.2997 21.5449 46.1103 21.5449C45.9201 21.5449 45.7664 21.6244 45.7664 21.7229C45.7664 21.8214 45.9201 21.9008 46.1103 21.9008C46.2997 21.9008 46.4534 21.8214 46.4534 21.7229Z" fill="#484848"/>
<path d="M44.5847 24.7518C44.5847 24.6422 44.4136 24.5532 44.2012 24.5532C43.9896 24.5532 43.8176 24.6422 43.8176 24.7518C43.8176 24.8615 43.9896 24.9504 44.2012 24.9504C44.4136 24.9504 44.5847 24.8615 44.5847 24.7518Z" fill="#484848"/>
<path d="M41.7349 22.6667C41.7349 22.5682 41.5812 22.4888 41.3918 22.4888C41.2016 22.4888 41.0479 22.5682 41.0479 22.6667C41.0479 22.7652 41.2016 22.8447 41.3918 22.8447C41.5812 22.8447 41.7349 22.7652 41.7349 22.6667Z" fill="#484848"/>
<path fill-rule="evenodd" clip-rule="evenodd" d="M38.2043 23.3816V23.3847C38.1687 23.4809 36.5877 27.8248 39 31.1543C39 31.1543 36.9839 35.0121 39.5825 37.9301C39.5825 37.9301 39.5603 38.0254 39.5349 38.1978C39.0705 41.2747 41.4907 44.0298 44.5957 44.0298H44.6876C44.5885 44.1847 44.4919 44.3579 44.3872 44.5446C44.3603 44.5923 44.3333 44.6407 44.3056 44.69C43.7572 45.6807 43.7723 45.8578 43.8444 46.6944C43.8571 46.8477 43.8721 47.0241 43.8864 47.2314C43.9046 47.5182 44.4007 47.3879 44.6686 47.2854C44.8469 47.2187 45.0022 47.171 45.1456 47.1353C45.2376 47.113 45.324 47.0971 45.4032 47.0876C45.6932 47.0415 45.9262 47.0511 46.1592 47.0598C46.2971 47.0654 46.4342 47.0709 46.5832 47.0654C46.6941 47.0654 46.8154 47.0558 46.9454 47.0336C47.1522 47.001 47.3844 46.9438 47.6713 46.8358C47.9383 46.7341 47.6713 46.2971 47.4961 46.0676C47.1443 45.6084 47.0951 45.1412 47.0508 44.7226C47.023 44.4636 46.9977 44.2237 46.9041 44.0139C49.8561 43.8384 52.1012 41.1722 51.6566 38.1978C51.6305 38.0254 51.6091 37.9301 51.6091 37.9301C54.2044 35.0121 52.1908 31.1543 52.1908 31.1543C53.7242 29.0372 53.6283 26.5085 53.3454 24.9236C53.1798 23.9893 52.9476 23.3831 52.9476 23.3831H52.9468V23.3816C52.9468 21.4376 49.956 19.8606 46.267 19.8606C42.5772 19.8606 38.2043 21.4376 38.2043 23.3816ZM38.9992 23.3816C38.9992 22.2169 42.5923 20.6574 46.267 20.6574C49.7349 20.6574 52.1511 22.093 52.1511 23.3816C52.1511 24.6701 49.7349 26.1065 46.267 26.1065C42.5923 26.1065 38.9992 24.5462 38.9992 23.3816ZM50.5297 31.944C47.1062 33.4582 42.9996 32.7289 39.6863 31.2838C43.2065 32.3015 46.9263 32.9545 50.5297 31.944ZM49.9845 38.6538C48.3845 39.2497 46.5856 39.3339 44.9 39.1996C43.2595 39.0693 41.6738 38.6777 40.1372 38.0969C43.3784 38.8119 46.6862 39.2759 49.9845 38.6538ZM45.4587 30.0278C45.4912 29.2239 45.7226 28.3984 46.1101 27.6938C44.9372 28.8727 44.9998 30.8707 45.7963 32.2181L45.7828 32.1633C45.6021 31.4515 45.4293 30.773 45.4587 30.0278ZM45.2653 39.5857C45.0268 40.1593 44.9436 40.8155 44.9721 41.432C45.0022 42.089 45.1861 42.6856 45.3762 43.3013C45.3976 43.3712 45.4198 43.4403 45.4412 43.511C44.6733 42.4266 44.3492 40.6987 45.2653 39.5857ZM44.9776 35.8471C45.0458 34.8771 45.3319 33.9039 45.7661 33.0356C45.1504 33.7792 44.8057 34.8215 44.7288 35.7724C44.6456 36.802 44.9182 37.7291 45.4531 38.599C45.1179 37.6942 44.9087 36.8203 44.9776 35.8471Z" fill="#484848"/>
<path d="M46.5835 47.0646L46.1096 44.5391L46.9457 47.0328C46.8157 47.0551 46.6945 47.0646 46.5835 47.0646Z" fill="#484848"/>
<path d="M45.1448 47.1343L45.3651 45.655L45.4031 47.0866C45.3239 47.0961 45.2375 47.112 45.1448 47.1343Z" fill="#484848"/>
<path fill-rule="evenodd" clip-rule="evenodd" d="M45.1366 61.8445C43.5809 63.4087 41.7646 64.7044 41.7646 64.7044C41.7646 64.7044 40.144 65.7745 39.8872 67.6717C39.804 68.3088 39.5385 68.9158 39.0503 69.3297C37.7824 70.4109 36.4843 69.8151 35.424 68.8975C35.023 68.5559 34.6854 68.1348 34.4857 67.6454C33.8723 66.1273 34.8867 65.0794 35.9843 64.0323L41.7384 58.2647C42.3066 58.4856 43.1229 58.9876 43.8044 60.1301C44.0255 60.4971 44.2997 60.8705 44.6056 61.2399C44.3005 61.541 43.9851 61.8309 43.6665 62.1146C43.2671 62.4721 42.8312 62.8065 42.393 63.1426C41.3588 63.9362 40.3104 64.741 39.6835 65.8762C39.468 66.2655 39.2992 66.6826 39.1914 67.1148C39.1549 67.2594 39.132 67.4079 39.109 67.5565C39.0733 67.7916 39.0369 68.0276 38.9465 68.2476C38.6636 68.9412 37.9647 69.2764 37.2467 69.1231C37.8513 69.4679 38.563 69.2542 38.9806 68.7211C39.273 68.3461 39.3903 67.8607 39.5076 67.3753C39.5979 66.9996 39.6883 66.623 39.861 66.2965C40.4689 65.1454 41.5054 64.3612 42.5333 63.5827C42.9668 63.2546 43.3994 62.9273 43.7973 62.5745C44.165 62.248 44.5295 61.9104 44.8766 61.5569C44.9614 61.653 45.0486 61.7491 45.1366 61.8445ZM49.194 57.0993L49.6172 57.5235C49.6933 57.5044 49.7615 57.4901 49.8201 57.479C49.9897 57.4528 50.145 57.3654 50.2663 57.2439L51.4811 56.026C51.7046 55.8027 51.7046 55.4381 51.4811 55.2141C52.1096 54.7279 52.8553 55.4 52.8553 55.4L58.6245 60.7426C73.2053 51.6502 81.2489 37.7054 81.2489 37.7054C75.4615 31.9036 69.9078 28.4995 69.9078 28.4995C69.9078 28.4995 67.1603 26.9511 65.4984 30.7724C65.248 31.3491 64.9913 31.9259 64.6885 32.4725C61.2888 38.6953 52.7158 48.4439 48.9 51.7686L50.3954 54.1257L48.4444 52.169L48.5363 52.2611C48.3136 52.0371 47.9499 52.0371 47.7264 52.2611L46.0471 53.9446L47.2889 55.1894C47.3095 55.1632 47.3317 55.137 47.3563 55.1124C47.6455 54.8232 48.1131 54.8232 48.4024 55.1124C48.6916 55.4023 48.6916 55.8719 48.4024 56.1618C48.3778 56.1865 48.3524 56.2087 48.3255 56.2294L49.0419 56.9467C49.1655 56.9023 49.2907 56.8625 49.4175 56.8284C49.8669 56.7076 50.1791 56.4192 50.5056 56.1173C50.6189 56.0133 50.7338 55.9076 50.8566 55.8059C50.817 55.8536 50.779 55.9013 50.7409 55.9489L50.7394 55.9497C50.3756 56.3994 50.0333 56.8236 49.4667 57.0031C49.3747 57.0325 49.2836 57.0643 49.194 57.0993ZM37.5573 67.0337C37.2681 67.3237 36.7997 67.3237 36.5112 67.0337C36.222 66.7445 36.222 66.2742 36.5112 65.9851C36.7997 65.6959 37.2681 65.6959 37.5573 65.9851C37.8466 66.2742 37.8466 66.7445 37.5573 67.0337ZM41.9342 61.5982C42.2234 61.8882 42.691 61.8882 42.9802 61.5982C43.2695 61.3082 43.2695 60.8387 42.9802 60.5495C42.691 60.2595 42.2234 60.2595 41.9342 60.5495C41.6449 60.8387 41.6449 61.3082 41.9342 61.5982ZM62.8428 56.3962C69.6906 51.361 75.6762 44.7982 79.7654 37.3154C78.5783 38.855 77.3808 40.3882 76.1406 41.8858C73.229 45.4027 70.1368 48.7497 66.8464 51.9116C64.278 54.3791 61.5345 56.6059 58.7759 58.8447L58.7751 58.8455C58.512 59.0592 58.2481 59.2736 57.9842 59.4881C59.6579 58.5444 61.2943 57.5354 62.8428 56.3962ZM67.9409 32.3032C68.3894 32.7529 69.1169 32.7529 69.5654 32.3032C70.014 31.8536 70.014 31.1243 69.5654 30.6746C69.1169 30.225 68.3894 30.225 67.9409 30.6746C67.4923 31.1243 67.4923 31.8536 67.9409 32.3032Z" fill="#1C4945"/>
<path fill-rule="evenodd" clip-rule="evenodd" d="M39.6945 56.026C39.4711 55.8027 39.4711 55.4381 39.6945 55.2141C39.0661 54.7279 38.3204 55.4 38.3204 55.4L32.5519 60.7426C17.9712 51.6502 9.92676 37.7054 9.92676 37.7054C15.7142 31.9036 21.2679 28.4995 21.2679 28.4995C21.2679 28.4995 24.0154 26.9511 25.678 30.7724C25.9276 31.3491 26.1844 31.9259 26.4871 32.4725C29.8868 38.6953 38.4607 48.4439 42.2764 51.7686C42.4349 51.9132 42.5903 52.0451 42.7377 52.1626C42.5903 52.0458 42.4349 51.9132 42.2764 51.7686L40.781 54.1257L42.679 52.2214L42.6394 52.2611C42.8621 52.0371 43.2258 52.0371 43.4493 52.2611L55.1914 64.0323C56.289 65.0794 57.3042 66.1273 56.69 67.6454C56.4903 68.1348 56.1527 68.5559 55.7517 68.8975C54.6921 69.8151 53.3933 70.4109 52.1253 69.3297C51.6372 68.9158 51.3717 68.3088 51.2885 67.6717C51.0317 65.7745 49.4111 64.7044 49.4111 64.7044C49.4111 64.7044 45.7356 62.082 44.3614 59.794C43.29 57.9994 41.9056 57.5815 41.3556 57.479C41.186 57.4528 41.0307 57.3654 40.9094 57.2439L39.6945 56.026ZM54.6644 67.0337C54.3752 67.3237 53.9076 67.3237 53.6183 67.0337C53.3291 66.7446 53.3291 66.2742 53.6183 65.9851C53.9076 65.6959 54.3752 65.6959 54.6644 65.9851C54.9537 66.2742 54.9537 66.7446 54.6644 67.0337ZM48.1962 61.5982C48.4855 61.8881 48.953 61.8881 49.2423 61.5982C49.5315 61.3082 49.5315 60.8387 49.2423 60.5495C48.953 60.2595 48.4855 60.2595 48.1962 60.5495C47.907 60.8387 47.907 61.3082 48.1962 61.5982ZM43.8202 56.1618C43.5309 56.4518 43.0626 56.4518 42.7741 56.1618C42.4848 55.8719 42.4848 55.4023 42.7741 55.1124C43.0626 54.8232 43.5309 54.8232 43.8202 55.1124C44.1086 55.4023 44.1086 55.8719 43.8202 56.1618ZM11.4103 37.3154C15.5002 44.7982 21.4858 51.361 28.3328 56.3962C29.8813 57.5354 31.5186 58.5444 33.1915 59.4881C32.9276 59.2736 32.6645 59.0592 32.4006 58.8455L32.3998 58.8447C29.642 56.6059 26.8984 54.3799 24.33 51.9116C21.0389 48.7497 17.9466 45.4027 15.0351 41.8858C13.7956 40.3882 12.5982 38.855 11.4103 37.3154ZM40.4339 55.9465C40.3959 55.8997 40.3578 55.8528 40.3198 55.8059C40.4418 55.9068 40.556 56.0125 40.6685 56.1165C40.9958 56.4184 41.3088 56.7076 41.7581 56.8284C42.6077 57.0572 43.3851 57.5291 44.0175 58.1368C44.4098 58.5142 44.7133 58.9479 45.0192 59.3849C45.1515 59.5732 45.2839 59.763 45.4241 59.9489C46.028 60.7481 46.7626 61.4496 47.5084 62.1146C47.9086 62.4713 48.3436 62.8057 48.7819 63.1418C49.8168 63.9362 50.8653 64.741 51.4921 65.8762C51.7069 66.2655 51.8765 66.6826 51.9851 67.1148C52.0215 67.2594 52.0437 67.4079 52.0667 67.5565C52.1031 67.7916 52.1396 68.0276 52.2291 68.2476C52.5129 68.9412 53.211 69.2764 53.929 69.1231C53.3251 69.4679 52.6127 69.2542 52.1958 68.7211C51.9034 68.3461 51.7862 67.8615 51.6689 67.3761C51.5785 66.9996 51.4874 66.623 51.3146 66.2965C50.7068 65.1454 49.6702 64.3612 48.6424 63.5827C48.2089 63.2546 47.777 62.9273 47.3784 62.5745C46.6469 61.9247 45.9297 61.2311 45.3306 60.4542C45.1222 60.1841 44.9376 59.8973 44.7537 59.6113C44.5033 59.2228 44.2529 58.8343 43.943 58.4872C43.3415 57.8127 42.5728 57.2772 41.709 57.0031C41.1408 56.8228 40.7985 56.3986 40.4339 55.9465ZM21.611 32.3032C22.0596 32.7529 22.7863 32.7529 23.2348 32.3032C23.6834 31.8536 23.6834 31.1243 23.2348 30.6746C22.7863 30.225 22.0596 30.225 21.611 30.6746C21.1625 31.1243 21.1625 31.8536 21.611 32.3032Z" fill="#1C4945"/>
<path d="M9.63243 21.9738C9.61103 21.9531 9.59359 21.9055 9.56823 21.8935L8.51186 21.3915C8.47937 21.3764 8.37398 21.4161 8.35337 21.4566L7.71622 22.8024L8.98734 23.4054L9.62371 22.0596C9.62767 22.0508 9.6348 21.9849 9.63243 21.9738ZM11.6144 25.5964L6.79536 23.3092C6.75574 23.291 6.74544 23.2457 6.76842 23.1972L7.73286 21.1619C7.95951 20.6828 8.50473 20.4357 8.88036 20.6137L9.93594 21.115C10.1309 21.2063 10.2664 21.3907 10.3203 21.6258L10.3147 21.6218C10.3837 21.8443 10.3512 22.1168 10.2403 22.3511L9.60152 23.6977L11.9789 24.8266C12.0186 24.8441 12.0281 24.8894 12.0059 24.9378L11.7174 25.5464C11.6944 25.5948 11.654 25.6147 11.6144 25.5964Z" fill="#1C4945"/>
<path d="M12.0648 17.9689C12.0743 17.9538 12.087 17.8966 12.0862 17.8847C12.0672 17.8625 12.0577 17.8116 12.0339 17.7957L11.0655 17.1427C11.0235 17.1149 10.9419 17.1467 10.8999 17.1832L10.0702 18.4186L11.2335 19.2043L12.0648 17.9689ZM13.5032 21.7632L9.08274 18.7816C9.04708 18.7578 9.04232 18.7125 9.07323 18.6672L10.3301 16.7979C10.6407 16.3364 11.1836 16.1838 11.5458 16.4277L12.515 17.0808C12.6457 17.1689 12.7471 17.3135 12.7884 17.4827C12.9603 17.4573 13.1267 17.4946 13.2567 17.5812L15.1404 18.8523C15.2601 18.9326 15.4138 18.8198 15.4606 18.8515C15.4962 18.8754 15.5002 18.9207 15.4701 18.9659L14.9891 19.6809C14.9597 19.7262 14.9154 19.7397 14.8805 19.7159L12.7765 18.2962C12.7202 18.3018 12.6822 18.309 12.6299 18.3495L11.7986 19.5848L13.9795 21.0553C14.0143 21.08 14.0191 21.126 13.9882 21.1697L13.6133 21.729C13.5832 21.7735 13.5396 21.7878 13.5032 21.7632Z" fill="#1C4945"/>
<path d="M17.8071 15.2625C17.8436 15.2228 17.884 15.2109 17.9157 15.2395L18.3135 15.601C18.3452 15.6304 18.3428 15.6756 18.3064 15.7154L16.1889 18.0566C16.1524 18.0971 16.1073 18.1034 16.0756 18.0756L12.1259 14.4903C12.0942 14.4609 12.0966 14.4157 12.133 14.3751L14.2505 12.0339C14.287 11.9942 14.3321 11.9871 14.3646 12.0157L14.7672 12.3819C14.7989 12.4105 14.7965 12.4566 14.7593 12.4963L13.1608 14.2663L14.2006 15.2101L15.0002 14.3259C15.0366 14.2854 15.0818 14.2782 15.1143 14.3076L15.5121 14.6683C15.5438 14.6977 15.5414 14.7438 15.505 14.7835L14.7038 15.6677L16.2071 17.0317L17.8071 15.2625Z" fill="#1C4945"/>
<path d="M19.6339 14.3893C19.6616 14.4219 19.6513 14.4672 19.6109 14.5013L19.0934 14.9311C19.0522 14.9653 19.0149 14.9494 18.9919 14.9208L15.589 10.8072C15.5653 10.7802 15.5574 10.7404 15.5978 10.7063L16.0534 10.3281C16.1707 10.3154 16.2349 10.3647 16.3221 10.4139L19.0411 11.886L18.1123 8.93628L18.1171 8.94104C18.0933 8.88543 17.9776 8.73052 18.0663 8.65584L18.5283 8.27292C18.5696 8.23796 18.6155 8.23717 18.6433 8.27054L22.0469 12.3841C22.0755 12.4175 22.0644 12.4628 22.024 12.497L21.4993 12.9323C21.4653 12.9609 21.4145 12.9561 21.3924 12.9283L19.576 10.7325C19.7686 11.3466 19.9635 11.9607 20.1569 12.574L20.4136 13.405C20.4247 13.4328 20.4168 13.4781 20.3812 13.5067C20.3542 13.5297 20.3075 13.5305 20.2829 13.5138C19.4555 13.0626 18.633 12.6177 17.8001 12.1712L19.6339 14.3893Z" fill="#1C4945"/>
<path d="M22.9081 11.8399L19.9363 7.40297C19.9133 7.36722 19.9268 7.32352 19.972 7.29413L20.5362 6.9136C20.5814 6.88261 20.6273 6.88817 20.6511 6.92312L23.6221 11.3593C23.6451 11.3958 23.6316 11.4395 23.5872 11.4697L23.0214 11.8494C22.9778 11.8796 22.9311 11.8757 22.9081 11.8399Z" fill="#1C4945"/>
<path d="M24.8611 4.40147C24.9078 4.37605 24.9538 4.384 24.9744 4.42133L26.8962 7.95738C27.2734 8.65092 26.9049 9.53037 26.0403 10.0023C25.1836 10.4694 24.2239 10.3161 23.8459 9.62332L21.9242 6.08648C21.9028 6.04914 21.921 6.00624 21.9685 5.98161L22.5573 5.65907C22.6049 5.63365 22.6509 5.6408 22.6707 5.67893L24.5924 9.21498C24.6852 9.38499 24.8706 9.48032 25.0766 9.52243L25.0735 9.51687C25.2803 9.55977 25.5141 9.52163 25.7185 9.41041C26.1362 9.18161 26.3319 8.69939 26.1496 8.36493L24.2271 4.82888C24.2073 4.79154 24.2247 4.74944 24.2723 4.72322L24.8611 4.40147Z" fill="#1C4945"/>
<path d="M29.1918 8.37715C29.2076 8.41766 29.1847 8.45738 29.1347 8.47724L28.5079 8.71955C28.458 8.73941 28.4286 8.7124 28.4152 8.67904L26.4934 3.69234C26.4807 3.65898 26.4847 3.61925 26.5354 3.60018L27.087 3.38648C27.2019 3.41032 27.2463 3.47784 27.3136 3.55252L29.424 5.81429L29.4795 2.71915L29.4818 2.7263C29.4779 2.66592 29.4169 2.48241 29.5246 2.4403L30.0849 2.22263C30.1356 2.20356 30.1784 2.21707 30.1943 2.25759L32.116 7.24348C32.1311 7.2832 32.1081 7.32372 32.0582 7.34278L31.4242 7.58906C31.3814 7.60575 31.3354 7.58509 31.3228 7.55172L30.2973 4.89035C30.2854 5.53464 30.2743 6.17814 30.2632 6.82163L30.2434 7.69234C30.2466 7.72253 30.2228 7.76225 30.1808 7.77814C30.1483 7.79165 30.1047 7.77814 30.0849 7.75431C29.4438 7.06235 28.8066 6.37834 28.156 5.68956L29.1918 8.37715Z" fill="#1C4945"/>
<path d="M37.081 4.83243L37.1539 4.78794L37.0644 4.74821L37.081 4.83243ZM36.1768 4.36609L36.1792 4.38039C36.1839 4.35735 36.2164 4.3359 36.2449 4.33828L36.2996 4.34146L37.0644 4.74821C37.062 4.73391 37.0667 4.71802 37.0644 4.70372L36.5421 2.03918C36.4668 1.65864 36.0302 1.42984 35.5547 1.52359C35.0808 1.61654 34.7337 1.99151 34.8098 2.3792L35.3336 5.04454C35.4081 5.42428 35.8844 5.66023 36.3488 5.56887C36.4629 5.54663 36.6055 5.48228 36.7046 5.42587C36.5817 5.36232 35.7766 4.9786 35.7615 4.90075C35.7481 4.83084 36.1102 4.44474 36.1768 4.36609ZM37.8449 5.151C37.9274 5.1939 38.2982 5.36232 38.3086 5.41872C38.3244 5.49578 37.9488 5.86202 37.8735 5.94305L37.8822 5.94146C37.8671 5.95894 37.8418 5.97086 37.8164 5.97642C37.7467 5.98993 37.4875 5.8358 37.4162 5.79847C37.1618 6.03283 36.8314 6.16311 36.4795 6.23143C35.5381 6.41654 34.6481 5.96847 34.4983 5.2082L33.9753 2.54365C33.8271 1.78893 34.4817 1.03104 35.4216 0.845933C36.3361 0.66639 37.2411 1.14067 37.3853 1.87314L37.9083 4.53848C37.9464 4.73471 37.9155 4.94683 37.8449 5.151Z" fill="#1C4945"/>
<path d="M42.3236 0.000406327C42.3759 -0.00356587 42.4131 0.0218572 42.4171 0.0647569L42.7222 4.08223C42.7832 4.87111 42.0866 5.52176 41.1047 5.59723C40.1308 5.6719 39.3169 5.13566 39.2575 4.34837L38.9508 0.330099C38.9484 0.2872 38.9809 0.255423 39.0348 0.251451L39.706 0.19981C39.7591 0.195838 39.7964 0.222055 39.7995 0.264955L40.1054 4.28323C40.1205 4.47707 40.2489 4.63914 40.4208 4.76307L40.42 4.75592C40.5912 4.87985 40.8203 4.94182 41.0532 4.92434C41.5264 4.88859 41.9036 4.52712 41.8742 4.14817L41.5684 0.129901C41.5652 0.0870018 41.5985 0.055225 41.6524 0.0512528L42.3236 0.000406327Z" fill="#1C4945"/>
<path d="M46.1365 1.76737L45.4423 3.5064L46.6952 3.55645L46.1365 1.76737ZM47.2825 5.51077L46.91 4.25397L45.1919 4.18564L44.6958 5.40908C44.6855 5.43053 44.63 5.47899 44.5944 5.47661L43.9145 5.4496C43.8693 5.4488 43.8186 5.39558 43.8281 5.35983L45.8782 0.112555C45.8885 0.0839547 45.9448 0.0426451 45.9796 0.0442339L46.4353 0.0625081C46.4718 0.064097 46.5233 0.116531 46.532 0.137981L48.1788 5.53222C48.1867 5.56797 48.1312 5.61643 48.086 5.61484L47.3784 5.58703C47.3427 5.58544 47.2912 5.54016 47.2825 5.51077Z" fill="#1C4945"/>
<path d="M49.1779 5.7045L50.079 0.437374C50.0861 0.395269 50.1257 0.373025 50.1796 0.381764L50.8501 0.496955C50.9024 0.506488 50.9333 0.54065 50.9261 0.58355L50.1265 5.25564L52.4739 5.66001C52.5277 5.66875 52.5587 5.69576 52.5523 5.73866L52.4612 6.27014C52.4533 6.31225 52.4136 6.33449 52.3613 6.32496L49.2532 5.7903C49.2009 5.78077 49.1692 5.74661 49.1779 5.7045Z" fill="#1C4945"/>
<path d="M53.4636 6.53234L54.7838 1.35975C54.7941 1.31764 54.8361 1.29937 54.8884 1.31208L55.5478 1.48129C55.5993 1.49401 55.627 1.53135 55.6167 1.57345L54.2964 6.74604C54.2861 6.78735 54.2457 6.80642 54.1926 6.79292L53.5333 6.62449C53.481 6.61099 53.4533 6.57444 53.4636 6.53234Z" fill="#1C4945"/>
<path d="M57.2804 7.67458C57.2661 7.71589 57.2225 7.73098 57.1726 7.7135L56.5283 7.49186C56.4784 7.47438 56.4538 7.43545 56.4673 7.39493L58.0023 2.9294L56.9111 2.55362C56.8603 2.53614 56.8358 2.49643 56.8492 2.45591L57.0268 1.94111C57.0418 1.8998 57.0838 1.8847 57.1345 1.90218L60.1158 2.9286C60.1658 2.94607 60.1903 2.985 60.1761 3.02552L60.0001 3.5419C59.9851 3.58163 59.9423 3.59752 59.8916 3.58004L58.8162 3.20983L57.2804 7.67458Z" fill="#1C4945"/>
<path d="M62.5003 4.00368L62.5581 5.56714C62.8458 5.33913 63.1422 5.1151 63.4425 4.9006C63.5574 4.80368 63.6755 4.7012 63.7999 4.62572C63.8292 4.60745 63.8594 4.60666 63.8919 4.62255L64.5465 4.93476C64.5948 4.95859 64.6091 5.01341 64.5908 5.05155C64.5655 5.10398 62.6738 6.51411 62.4892 6.64837L61.2085 9.33913C61.1895 9.37726 61.1459 9.38839 61.0976 9.36535L60.4834 9.07061C60.4343 9.04757 60.4145 9.00547 60.4327 8.96734L61.7395 6.22652C61.7371 5.83486 61.6436 3.69623 61.6658 3.65095C61.684 3.61282 61.7347 3.58898 61.7847 3.61281L62.4456 3.929C62.4781 3.94489 62.4955 3.96952 62.5003 4.00368Z" fill="#1C4945"/>
<path d="M65.3471 11.7055C65.3217 11.7404 65.2766 11.7436 65.2338 11.7118L64.6862 11.3202C64.6426 11.2892 64.6482 11.2495 64.6695 11.2209L67.765 6.8737C67.7856 6.84431 67.8204 6.82525 67.8648 6.85702L68.3458 7.20101C68.3878 7.31144 68.3569 7.38611 68.3324 7.48304L67.6088 10.4932L70.2161 8.84073L70.2113 8.8463C70.2597 8.81055 70.3793 8.65801 70.4737 8.72634L70.9626 9.0751C71.0062 9.10687 71.0189 9.15136 70.9943 9.18632L67.8989 13.5335C67.8743 13.5684 67.8284 13.5708 67.784 13.5398L67.23 13.1426C67.1936 13.1164 67.1849 13.0664 67.2063 13.037L68.8578 10.718C68.3149 11.062 67.7737 11.4052 67.2308 11.7492L66.4962 12.2107C66.4708 12.229 66.4265 12.2322 66.39 12.2052C66.3599 12.1845 66.348 12.1408 66.3567 12.1114C66.581 11.1955 66.7989 10.2842 67.0153 9.36348L65.3471 11.7055Z" fill="#1C4945"/>
<path d="M71.4189 15.9606C71.4585 15.9971 71.4704 16.0377 71.4403 16.0686L71.0726 16.4611C71.0424 16.4929 70.9973 16.4889 70.9577 16.4516L68.6618 14.2867C68.6222 14.2502 68.6159 14.2041 68.6452 14.1723L72.2977 10.2804C72.3262 10.2494 72.3722 10.2525 72.4118 10.2899L74.7068 12.4555C74.7465 12.4921 74.7528 12.5374 74.7227 12.5683L74.3502 12.9671C74.3209 12.9981 74.2749 12.9949 74.2353 12.9576L72.5006 11.3203L71.5385 12.3459L72.4063 13.165C72.4459 13.2015 72.4523 13.2468 72.4221 13.2786L72.0552 13.671C72.0259 13.702 71.9799 13.6988 71.9411 13.6615L71.0726 12.8432L69.6849 14.3241L71.4189 15.9606Z" fill="#1C4945"/>
<path d="M76.0064 16.57L74.236 17.1729L75.0135 18.158L76.0064 16.57ZM73.9159 19.8772L74.6259 18.7761L73.5585 17.4248L72.3087 17.8426C72.2858 17.8498 72.2144 17.8379 72.1915 17.8101L71.7683 17.2746C71.7413 17.2397 71.7477 17.1666 71.781 17.1515L77.0921 15.2965C77.1191 15.2861 77.1872 15.3012 77.2094 15.3298L77.4923 15.6881C77.5145 15.7167 77.5082 15.7898 77.4979 15.8105L74.4825 20.5731C74.4603 20.6025 74.3874 20.5914 74.3597 20.5556L73.9206 19.9995C73.8977 19.9717 73.8985 19.9026 73.9159 19.8772Z" fill="#1C4945"/>
<path d="M76.0158 23.2418C75.9793 23.2625 75.9358 23.245 75.9104 23.1989L75.5744 22.6047C75.549 22.5578 75.5546 22.5125 75.5918 22.4911L79.6976 20.1665L79.1294 19.1584C79.1025 19.1115 79.1096 19.0654 79.1469 19.0448L79.6216 18.7771C79.6596 18.7556 79.7016 18.7723 79.7278 18.8192L81.2802 21.5703C81.3072 21.6164 81.3 21.6617 81.262 21.6831L80.7873 21.9516C80.7516 21.9731 80.7081 21.9556 80.6819 21.9087L80.1216 20.9165L76.0158 23.2418Z" fill="#1C4945"/>
</svg>
