<svg width="21" height="13" viewBox="0 0 21 13" fill="none" xmlns="http://www.w3.org/2000/svg">
<circle cx="19.5" cy="1.21875" r="1.21875" transform="rotate(90 19.5 1.21875)" fill="#5E98AE"/>
<circle cx="19.5" cy="6.5" r="1.21875" transform="rotate(90 19.5 6.5)" fill="#5E98AE"/>
<circle cx="19.5" cy="11.7812" r="1.21875" transform="rotate(90 19.5 11.7812)" fill="#5E98AE"/>
<circle cx="13.4062" cy="1.21875" r="1.21875" transform="rotate(90 13.4062 1.21875)" fill="#5E98AE"/>
<circle cx="13.4062" cy="6.5" r="1.21875" transform="rotate(90 13.4062 6.5)" fill="#5E98AE"/>
<circle cx="13.4062" cy="11.7812" r="1.21875" transform="rotate(90 13.4062 11.7812)" fill="#5E98AE"/>
<circle cx="7.3125" cy="1.21875" r="1.21875" transform="rotate(90 7.3125 1.21875)" fill="#5E98AE"/>
<circle cx="7.3125" cy="6.5" r="1.21875" transform="rotate(90 7.3125 6.5)" fill="#5E98AE"/>
<circle cx="7.3125" cy="11.7812" r="1.21875" transform="rotate(90 7.3125 11.7812)" fill="#5E98AE"/>
<circle cx="1.21875" cy="1.21875" r="1.21875" transform="rotate(90 1.21875 1.21875)" fill="#5E98AE"/>
<circle cx="1.21875" cy="6.5" r="1.21875" transform="rotate(90 1.21875 6.5)" fill="#5E98AE"/>
<circle cx="1.21875" cy="11.7812" r="1.21875" transform="rotate(90 1.21875 11.7812)" fill="#5E98AE"/>
</svg>
