<svg width="56" height="50" viewBox="0 0 56 50" fill="none" xmlns="http://www.w3.org/2000/svg">
<path fill-rule="evenodd" clip-rule="evenodd" d="M35.5066 33.3607C35.24 33.0931 35.24 32.6561 35.5066 32.3877C34.757 31.805 33.8675 32.6104 33.8675 32.6104L26.987 39.0132C9.59526 28.1166 0 11.4046 0 11.4046C6.90319 4.45152 13.5275 0.371819 13.5275 0.371819C13.5275 0.371819 16.8047 -1.48379 18.7879 3.09575C19.0856 3.78696 19.3919 4.47818 19.753 5.13321C23.8081 12.5909 34.0348 24.274 38.5862 28.2585C38.7753 28.4317 38.9605 28.5898 39.1364 28.7307C38.9605 28.5907 38.7753 28.4317 38.5862 28.2585L36.8025 31.0833L39.0664 28.8011L39.0191 28.8487C39.2848 28.5803 39.7186 28.5803 39.9852 28.8487L53.991 42.9558C55.3002 44.2107 56.5111 45.4665 55.7785 47.2859C55.5403 47.8724 55.1376 48.377 54.6593 48.7864C53.3955 49.8861 51.8462 50.6001 50.3338 49.3043C49.7516 48.8083 49.4349 48.0809 49.3356 47.3173C49.0294 45.0438 47.0963 43.7613 47.0963 43.7613C47.0963 43.7613 42.7123 40.6185 41.0732 37.8764C39.7952 35.7257 38.1438 35.2249 37.4878 35.1021C37.2856 35.0706 37.1003 34.9659 36.9557 34.8202L35.5066 33.3607ZM53.3624 46.5528C53.0174 46.9003 52.4597 46.9003 52.1147 46.5528C51.7697 46.2062 51.7697 45.6426 52.1147 45.2961C52.4597 44.9495 53.0174 44.9495 53.3624 45.2961C53.7075 45.6426 53.7075 46.2062 53.3624 46.5528ZM45.6473 40.0386C45.9923 40.3861 46.55 40.3861 46.895 40.0386C47.24 39.6911 47.24 39.1284 46.895 38.7819C46.55 38.4344 45.9923 38.4344 45.6473 38.7819C45.3023 39.1284 45.3023 39.6911 45.6473 40.0386ZM40.4276 33.5235C40.0826 33.871 39.5239 33.871 39.1798 33.5235C38.8348 33.176 38.8348 32.6133 39.1798 32.2658C39.5239 31.9192 40.0826 31.9192 40.4276 32.2658C40.7716 32.6133 40.7716 33.176 40.4276 33.5235ZM1.76951 10.9371C6.64797 19.9048 13.7875 27.77 21.9545 33.8044C23.8015 35.1697 25.7544 36.3788 27.7498 37.5099C27.4351 37.2528 27.1212 36.9958 26.8065 36.7396L26.8055 36.7387C23.516 34.0557 20.2436 31.388 17.18 28.4298C13.2543 24.6405 9.56597 20.6294 6.09311 16.4145C4.61473 14.6198 3.18645 12.7823 1.76951 10.9371ZM36.3885 33.2655C36.3431 33.2093 36.2978 33.1531 36.2524 33.097C36.398 33.2179 36.5341 33.3445 36.6683 33.4692C37.0587 33.831 37.4321 34.1776 37.968 34.3223C38.9813 34.5965 39.9086 35.162 40.6629 35.8904C41.1308 36.3426 41.4929 36.8625 41.8577 37.3861C42.0156 37.6118 42.1735 37.8393 42.3408 38.0621C43.0611 39.0199 43.9373 39.8606 44.8268 40.6575C45.3041 41.085 45.8231 41.4858 46.3458 41.8885C47.5803 42.8406 48.8309 43.8051 49.5786 45.1656C49.8347 45.6321 50.037 46.132 50.1665 46.6499C50.21 46.8232 50.2365 47.0012 50.2639 47.1793C50.3074 47.4611 50.3509 47.7439 50.4577 48.0076C50.7961 48.8388 51.6288 49.2405 52.4852 49.0568C51.765 49.47 50.9152 49.2139 50.418 48.575C50.0692 48.1257 49.9293 47.5449 49.7894 46.9632C49.6816 46.5119 49.5729 46.0606 49.3668 45.6693C48.6418 44.2897 47.4054 43.35 46.1794 42.4169C45.6624 42.0237 45.1472 41.6315 44.6718 41.2087C43.7993 40.4299 42.9438 39.5988 42.2292 38.6676C41.9806 38.3439 41.7604 38.0002 41.5411 37.6575C41.2424 37.1919 40.9437 36.7263 40.5741 36.3103C39.8566 35.5019 38.9397 34.8602 37.9094 34.5318C37.2317 34.3156 36.8233 33.8072 36.3885 33.2655ZM13.9368 4.93042C14.4718 5.4693 15.3386 5.4693 15.8737 4.93042C16.4087 4.39154 16.4087 3.51752 15.8737 2.97864C15.3386 2.43976 14.4718 2.43976 13.9368 2.97864C13.4018 3.51752 13.4018 4.39154 13.9368 4.93042Z" fill="#1C4945"/>
</svg>
