<svg width="56" height="50" viewBox="0 0 56 50" fill="none" xmlns="http://www.w3.org/2000/svg">
<path fill-rule="evenodd" clip-rule="evenodd" d="M20.4934 33.3607C20.76 33.0931 20.76 32.6561 20.4934 32.3877C21.243 31.805 22.1325 32.6104 22.1325 32.6104L29.013 39.0132C46.4047 28.1166 56 11.4046 56 11.4046C49.0968 4.45152 42.4725 0.371819 42.4725 0.371819C42.4725 0.371819 39.1953 -1.48379 37.2121 3.09575C36.9144 3.78696 36.6081 4.47818 36.247 5.13321C32.1919 12.5909 21.9652 24.274 17.4138 28.2585C17.2247 28.4317 17.0395 28.5898 16.8636 28.7307C17.0395 28.5907 17.2247 28.4317 17.4138 28.2585L19.1975 31.0833L16.9336 28.8011L16.9809 28.8487C16.7152 28.5803 16.2814 28.5803 16.0148 28.8487L2.00898 42.9558C0.699808 44.2107 -0.511084 45.4665 0.221488 47.2859C0.459693 47.8724 0.862391 48.377 1.34069 48.7864C2.60449 49.8861 4.15376 50.6001 5.66616 49.3043C6.24844 48.8083 6.5651 48.0809 6.66435 47.3173C6.97061 45.0438 8.90366 43.7613 8.90366 43.7613C8.90366 43.7613 13.2877 40.6185 14.9268 37.8764C16.2048 35.7257 17.8562 35.2249 18.5122 35.1021C18.7144 35.0706 18.8997 34.9659 19.0443 34.8202L20.4934 33.3607ZM2.63756 46.5528C2.98258 46.9003 3.54028 46.9003 3.8853 46.5528C4.23032 46.2062 4.23032 45.6426 3.8853 45.2961C3.54028 44.9495 2.98258 44.9495 2.63756 45.2961C2.29254 45.6426 2.29254 46.2062 2.63756 46.5528ZM10.3527 40.0386C10.0077 40.3861 9.45002 40.3861 9.105 40.0386C8.75998 39.6911 8.75998 39.1284 9.105 38.7819C9.45002 38.4344 10.0077 38.4344 10.3527 38.7819C10.6977 39.1284 10.6977 39.6911 10.3527 40.0386ZM15.5724 33.5235C15.9174 33.871 16.4761 33.871 16.8202 33.5235C17.1652 33.176 17.1652 32.6133 16.8202 32.2658C16.4761 31.9192 15.9174 31.9192 15.5724 32.2658C15.2284 32.6133 15.2284 33.176 15.5724 33.5235ZM54.2305 10.9371C49.352 19.9048 42.2125 27.77 34.0455 33.8044C32.1985 35.1697 30.2456 36.3788 28.2502 37.5099C28.5649 37.2528 28.8788 36.9958 29.1935 36.7396L29.1945 36.7387C32.484 34.0557 35.7564 31.388 38.82 28.4298C42.7457 24.6405 46.434 20.6294 49.9069 16.4145C51.3853 14.6198 52.8136 12.7823 54.2305 10.9371ZM19.6115 33.2655C19.6569 33.2093 19.7022 33.1531 19.7476 33.097C19.602 33.2179 19.4659 33.3445 19.3317 33.4692C18.9413 33.831 18.5679 34.1776 18.032 34.3223C17.0187 34.5965 16.0914 35.162 15.3371 35.8904C14.8692 36.3426 14.5071 36.8625 14.1423 37.3861C13.9844 37.6118 13.8265 37.8393 13.6592 38.0621C12.9389 39.0199 12.0627 39.8606 11.1732 40.6575C10.6959 41.085 10.1769 41.4858 9.65418 41.8885C8.41968 42.8406 7.16913 43.8051 6.42143 45.1656C6.16527 45.6321 5.96297 46.132 5.83347 46.6499C5.78999 46.8232 5.76353 47.0012 5.73612 47.1793C5.69263 47.4611 5.64914 47.7439 5.54232 48.0076C5.20392 48.8388 4.37116 49.2405 3.51476 49.0568C4.23505 49.47 5.08484 49.2139 5.58204 48.575C5.93084 48.1257 6.07072 47.5449 6.21062 46.9632C6.31838 46.5119 6.4271 46.0606 6.63317 45.6693C7.35818 44.2897 8.59456 43.35 9.82056 42.4169C10.3376 42.0237 10.8528 41.6315 11.3282 41.2087C12.2007 40.4299 13.0562 39.5988 13.7708 38.6676C14.0194 38.3439 14.2396 38.0002 14.4589 37.6575C14.7576 37.1919 15.0563 36.7263 15.4259 36.3103C16.1434 35.5019 17.0603 34.8602 18.0906 34.5318C18.7683 34.3156 19.1767 33.8072 19.6115 33.2655ZM42.0632 4.93042C41.5282 5.4693 40.6614 5.4693 40.1263 4.93042C39.5913 4.39154 39.5913 3.51752 40.1263 2.97864C40.6614 2.43976 41.5282 2.43976 42.0632 2.97864C42.5982 3.51752 42.5982 4.39154 42.0632 4.93042Z" fill="#1C4945"/>
</svg>
