<svg width="20" height="34" viewBox="0 0 20 34" fill="none" xmlns="http://www.w3.org/2000/svg">
<path d="M8.15874 8.7519C7.09824 8.52342 6.05253 8.21648 5.05023 7.81051C6.79242 8.36259 8.82365 8.69208 10.7128 8.69208C15.3021 8.69208 19.0282 6.74852 19.0282 4.34702C19.0282 4.34702 19.3162 5.09521 19.5224 6.24841C19.3448 6.51611 19.1268 6.77206 18.8654 7.00838C17.9785 7.82327 16.8381 8.32631 15.6898 8.6607C13.258 9.36576 10.6142 9.27554 8.15874 8.7519Z" fill="#1C4945"/>
<path d="M18.5428 8.5195C18.6138 9.86685 18.4402 11.2122 17.8523 12.44C17.5326 13.1087 16.9259 13.6422 17.2771 14.4159C19.4908 19.2905 16.6724 21.5596 16.4997 21.9518C16.2482 22.5294 17.3363 25.4359 14.3156 27.5697C15.6661 26.3028 16.2413 24.5975 16.0114 22.854C15.9118 22.3715 15.8723 21.9303 16.1584 21.4949C16.5313 20.9261 16.9506 20.4535 17.1962 19.8033C18.2587 16.9929 16.5441 14.6169 16.6645 13.7726C16.7572 13.1146 17.3659 12.5449 17.6609 11.9604C18.2005 10.8955 18.4639 9.70505 18.5428 8.5195Z" fill="#1C4945"/>
<path d="M14.5711 3.37227C14.5711 3.06337 14.0847 2.8143 13.4849 2.8143C12.8842 2.8143 12.3978 3.06337 12.3978 3.37227C12.3978 3.67919 12.8842 3.92926 13.4849 3.92926C14.0847 3.92926 14.5711 3.67919 14.5711 3.37227Z" fill="#1C4945"/>
<path d="M11.2603 5.20797C11.2603 4.99714 10.9259 4.82651 10.5155 4.82651C10.1041 4.82651 9.77065 4.99714 9.77065 5.20797C9.77065 5.4188 10.1041 5.58942 10.5155 5.58942C10.9259 5.58942 11.2603 5.4188 11.2603 5.20797Z" fill="#1C4945"/>
<path d="M8.89571 3.37235C8.89571 3.11052 8.48334 2.89871 7.9743 2.89871C7.46624 2.89871 7.05289 3.11052 7.05289 3.37235C7.05289 3.63319 7.46624 3.84501 7.9743 3.84501C8.48334 3.84501 8.89571 3.63319 8.89571 3.37235Z" fill="#1C4945"/>
<path d="M6.05351 5.18055C6.05351 4.9962 5.76151 4.84616 5.40045 4.84616C5.04037 4.84616 4.74835 4.9962 4.74835 5.18055C4.74835 5.36589 5.04037 5.51591 5.40045 5.51591C5.76151 5.51591 6.05351 5.36589 6.05351 5.18055Z" fill="#1C4945"/>
<path d="M15.6188 5.3982C15.6188 5.21385 15.3267 5.06381 14.9667 5.06381C14.6066 5.06381 14.3146 5.21385 14.3146 5.3982C14.3146 5.58354 14.6066 5.73258 14.9667 5.73258C15.3267 5.73258 15.6188 5.58354 15.6188 5.3982Z" fill="#1C4945"/>
<path d="M10.9427 2.29854C10.9427 2.17695 10.7513 2.07889 10.5155 2.07889C10.2788 2.07889 10.0874 2.17695 10.0874 2.29854C10.0874 2.42014 10.2788 2.5182 10.5155 2.5182C10.7513 2.5182 10.9427 2.42014 10.9427 2.29854Z" fill="#1C4945"/>
<path d="M8.6165 6.03757C8.6165 5.90225 8.40342 5.79242 8.13903 5.79242C7.87563 5.79242 7.66155 5.90225 7.66155 6.03757C7.66155 6.17289 7.87563 6.28272 8.13903 6.28272C8.40342 6.28272 8.6165 6.17289 8.6165 6.03757Z" fill="#1C4945"/>
<path d="M5.06898 3.46349C5.06898 3.3419 4.87758 3.24384 4.64181 3.24384C4.40504 3.24384 4.21367 3.3419 4.21367 3.46349C4.21367 3.58509 4.40504 3.68314 4.64181 3.68314C4.87758 3.68314 5.06898 3.58509 5.06898 3.46349Z" fill="#1C4945"/>
<path fill-rule="evenodd" clip-rule="evenodd" d="M0.67409 4.34605V4.34997C0.629697 4.46862 -1.3384 9.83057 1.66455 13.9403C1.66455 13.9403 -0.845143 18.7021 2.38964 22.3039C2.38964 22.3039 2.36202 22.4215 2.33045 22.6343C1.75235 26.4322 4.76517 29.833 8.63033 29.833H8.74476C8.62145 30.0242 8.50109 30.238 8.37087 30.4684C8.33733 30.5272 8.30378 30.587 8.26925 30.6478C7.58658 31.8707 7.60533 32.0893 7.6951 33.1219C7.71088 33.3112 7.72964 33.5289 7.74739 33.7848C7.77008 34.1388 8.38764 33.978 8.72108 33.8515C8.94305 33.7691 9.13639 33.7103 9.31495 33.6662C9.42939 33.6387 9.53693 33.6191 9.63558 33.6073C9.99665 33.5504 10.2867 33.5622 10.5767 33.573C10.7484 33.5799 10.919 33.5867 11.1045 33.5799C11.2426 33.5799 11.3935 33.5681 11.5553 33.5406C11.8128 33.5004 12.1019 33.4298 12.459 33.2965C12.7914 33.1709 12.459 32.6316 12.241 32.3482C11.8029 31.7814 11.7418 31.2048 11.6865 30.6881C11.652 30.3684 11.6204 30.0722 11.504 29.8134C15.1788 29.5966 17.9736 26.3057 17.4202 22.6343C17.3876 22.4215 17.361 22.3039 17.361 22.3039C20.5918 18.7021 18.0851 13.9403 18.0851 13.9403C19.994 11.327 19.8746 8.20571 19.5224 6.2494C19.3162 5.09621 19.0272 4.34801 19.0272 4.34801H19.0262V4.34605C19.0262 1.94651 15.3031 0 10.7109 0C6.11767 0 0.67409 1.94651 0.67409 4.34605ZM1.66355 4.34605C1.66355 2.90848 6.13641 0.983553 10.7109 0.983553C15.0279 0.983553 18.0357 2.75551 18.0357 4.34605C18.0357 5.93659 15.0279 7.70952 10.7109 7.70952C6.13641 7.70952 1.66355 5.78362 1.66355 4.34605ZM16.0173 14.915C11.7556 16.7841 6.64348 15.8838 2.51887 14.1001C6.90096 15.3563 11.5317 16.1623 16.0173 14.915ZM15.3386 23.1972C13.3468 23.9327 11.1075 24.0366 9.00914 23.8709C6.96705 23.7101 4.99304 23.2266 3.08019 22.5098C7.11504 23.3923 11.2327 23.965 15.3386 23.1972ZM9.70463 12.5498C9.74508 11.5574 10.0331 10.5386 10.5156 9.66877C9.05551 11.124 9.13345 13.5902 10.1249 15.2533L10.1081 15.1857C9.88319 14.307 9.66813 13.4696 9.70463 12.5498ZM9.46392 24.3475C9.16698 25.0554 9.0634 25.8654 9.09891 26.6264C9.1364 27.4373 9.36527 28.1738 9.60203 28.9337C9.62867 29.02 9.65629 29.1054 9.68292 29.1926C8.72699 27.8541 8.32351 25.7213 9.46392 24.3475ZM9.10582 19.7327C9.19066 18.5354 9.54679 17.3342 10.0874 16.2624C9.32088 17.1802 8.89175 18.4668 8.79606 19.6406C8.69248 20.9114 9.03182 22.0558 9.69772 23.1295C9.28043 22.0126 9.02 20.934 9.10582 19.7327Z" fill="#1C4945"/>
</svg>
